<?xml version="1.0" encoding="utf-8" ?><svg xmlns="http://www.w3.org/2000/svg" xmlns:xlink="http://www.w3.org/1999/xlink" width="500" height="500" viewBox="0 0 500 500"><path fill="#082B4A" d="M244.453 263.277L244.771 263.007C246.222 261.757 248.224 259.261 249.911 257.702C256.104 251.972 263.48 247.672 271.517 245.106C281.891 241.834 299.813 242.732 311.353 242.732L346.276 242.734L378.604 242.737C384.751 242.74 391.048 242.618 397.142 242.896C419.414 243.913 439.414 258.674 448.327 278.934C452.489 288.395 453.488 298.092 452.748 308.268C451.57 324.46 444.017 338.109 431.714 348.459C417.546 360.698 401.522 363.727 383.367 362.388C376.003 361.845 371.326 360.382 364.424 358.063C358.858 359.085 354.342 361.511 348.181 362.152C332.598 363.774 316.447 362.131 300.943 362.837C270.578 364.221 247.232 352.618 234.898 323.54C233.516 319.367 232.276 315.247 231.837 310.851C229.91 291.568 232.426 278.764 244.453 263.277ZM307.812 344.707L334.317 344.717C337.516 344.711 341.955 344.391 344.924 344.54C336.219 336.086 330.269 324.055 328.549 312.092C327.484 304.689 328.185 297.129 326.437 289.84C323.784 279.02 315.205 269.205 305.286 264.351C301.117 262.311 291.606 260.306 286.902 260.845C274.051 262.399 265.73 265.648 257.492 276.235C243.307 294.461 247.72 323.115 266.618 336.466C279.945 345.882 292.531 344.745 307.812 344.707ZM373.547 327.89C385.623 313.737 381.532 292.599 382.3 275.507C382.608 268.655 382.387 261.785 373.788 260.948C368.838 260.472 363.602 260.692 358.615 260.686L330.254 260.731C339.032 270.247 344.786 281.769 345.486 294.796C346.076 305.779 345.817 314.956 352.04 324.625C354.241 328.015 356.911 331.075 359.972 333.714C361.075 334.67 363.16 336.249 364.077 337.188C367.674 334.15 370.668 331.704 373.547 327.89ZM382.902 344.706C385.551 344.478 388.405 344.737 391.099 344.728C398.661 344.701 406.274 343.016 412.979 339.481C420.163 335.85 428.322 327.184 431.43 319.829C441.247 296.595 429.918 270.325 405.583 262.681C403.513 262.015 401.392 261.519 399.241 261.198C400.59 269.955 400.278 278.296 400.241 287.136C400.199 296.946 400.769 308.012 398.473 317.524C396.755 324.779 393.561 331.602 389.09 337.569C387.513 339.714 384.886 342.89 382.902 344.706Z"/><path fill="#8B9197" d="M49.7832 237.135C59.4391 236.833 69.6731 237.256 79.4904 237.006C80.0069 239.574 80.3651 242.957 81.1385 245.389C81.1132 248.078 81.9286 251.688 82.3987 254.435L88.6608 289.285C89.6193 294.645 91.2781 302.516 91.9157 307.746C94.135 307.752 97.1393 307.671 99.2958 307.816C100.223 307.083 101.226 299.023 101.489 297.472C102.117 294.321 103.108 289.904 103.437 286.807C103.563 285.067 104.422 280.979 104.77 279.059L107.54 263.702L110.281 247.474C110.747 244.718 111.387 240.263 112.227 237.723C113.814 236.22 160.351 237.772 166.983 237.064C167.084 237.053 167.184 237.04 167.284 237.028C167.64 239.189 168.198 242.898 168.748 244.945C178.295 243.846 175.686 245.882 177.401 253.321L177.788 255.049C178.652 260.685 180.136 267.1 180.865 272.463C181.474 278.814 183.684 286.529 184.331 292.649C185.092 295.649 185.341 298.679 185.948 301.641C186.368 303.787 186.618 305.528 186.884 307.703L187.038 307.671C187.634 307.132 188.252 302.182 188.466 300.964C188.927 299.652 190.647 290.139 190.914 288.505C192.981 277.666 194.752 266.541 196.809 255.711C197.506 252.046 199.395 239.665 200.63 237.282C202.101 236.868 208.473 237.112 210.403 237.092C216.815 237.029 223.385 237.271 229.799 237.03L229.714 237.343C228.897 240.259 228.465 242.987 227.931 245.966C227.66 247.139 227.249 249.392 227.131 250.588C226.677 251.718 226.264 254.299 226.111 255.583C225.462 257.825 224.937 261.471 224.485 263.9L221.546 279.473L211.058 335.139C208.998 334.956 207.053 335.072 205.007 335.008C193.79 334.656 182.085 335.555 170.931 335.09C168.461 335.064 165.99 335.099 163.521 335.193C161.812 334.869 157.868 334.973 155.969 334.979C154.035 323.485 152.031 312.003 149.957 300.533C150.048 298.863 147.405 285.078 146.899 283.309C146.606 281.631 146.314 279.665 145.887 278.047C145.646 276.45 145.193 272.484 144.519 271.22C144.258 273.947 143.995 276.297 143.38 278.996C142.199 283.603 141.287 290.685 140.396 295.581C139.775 297.814 139.059 302.565 138.651 305.072C138.014 308.989 137.008 313.759 136.584 317.616C135.005 325.101 133.756 333.954 132.399 341.59C132.29 342.31 132.316 342.426 131.978 343.086C129.122 343.242 125.087 342.992 122.066 342.998L96.5234 343.038C94.0961 343.041 86.0415 342.942 84.0421 343.322L83.0651 342.935C83.6235 340.48 82.9482 337.519 82.4691 335.015C80.6032 335.028 77.5159 334.958 75.7521 335.154C74.0577 334.883 70.1637 334.927 68.1938 334.859L56.0611 271.003C53.9478 259.846 52.0341 248.182 49.7832 237.135Z"/><path fill="#B3B7BA" d="M135.905 264.246L143.665 264.262C144.018 266.497 144.371 268.965 144.519 271.22C144.258 273.947 143.995 276.297 143.38 278.996C142.199 283.603 141.287 290.685 140.396 295.581C139.775 297.814 139.059 302.565 138.651 305.072C138.014 308.989 137.008 313.759 136.584 317.616C135.005 325.101 133.756 333.954 132.399 341.59C132.29 342.31 132.316 342.426 131.978 343.086C129.122 343.242 125.087 342.992 122.066 342.998L96.5234 343.038C94.0961 343.041 86.0415 342.942 84.0421 343.322L83.0651 342.935C83.6235 340.48 82.9482 337.519 82.4691 335.015C86.7176 334.859 91.9152 335.002 96.2232 335.004L123.373 334.992C124.617 329.387 125.685 322.142 126.687 316.398L132.738 281.739C133.645 276.55 134.722 269.19 135.905 264.246Z"/><path fill="#B3B7BA" d="M177.401 253.321L177.788 255.049C178.652 260.685 180.136 267.1 180.865 272.463C181.474 278.814 183.684 286.529 184.331 292.649C185.092 295.649 185.341 298.679 185.948 301.641C186.368 303.787 186.618 305.528 186.884 307.703C184.786 307.822 181.764 307.78 179.606 307.81C179.052 302.721 177.282 294.182 176.353 288.882L170.209 254.066C172.071 254.021 176.308 254.353 177.401 253.321Z"/><path fill="#D4D4D6" d="M168.748 244.945C178.295 243.846 175.686 245.882 177.401 253.321C176.308 254.353 172.071 254.021 170.209 254.066C169.736 251.388 168.971 247.54 168.748 244.945Z"/><path fill="#0092FE" d="M287.672 137.051C288.09 135.65 288.524 134.253 288.973 132.861C292.667 121.437 300.836 111.999 311.613 106.707C334.157 95.5624 369.475 98.2792 385.88 118.412C387.54 120.45 389.214 122.089 390.377 124.499C391.82 127.745 393.458 131.619 394.404 134.993C401.786 164.994 389.779 192.826 358.322 200.074C348.091 202.432 339.235 202.166 328.922 201.088C321.527 199.41 319.291 198.851 312.279 196.041C311.518 195.537 311.14 195.479 310.279 195.227C308.243 194.514 299.791 186.848 298.077 185.292C297.766 184.806 296.111 182.837 295.669 182.289C294.667 180.372 292.313 176.873 291.057 174.707C290.957 174.256 290.578 173.586 290.358 173.141L290.146 172.68C289.242 170.08 288.524 167.929 287.919 165.236C286.053 159.412 286.295 149.577 286.524 143.51C286.723 141.497 287.272 139.07 287.672 137.051ZM321.568 165.502C322.603 166.916 323.786 168.216 325.097 169.379C326.062 170.234 327.093 171.013 328.18 171.706C329.38 172.471 330.644 173.131 331.959 173.677C341.022 177.445 351.458 175.45 358.493 168.606C365.528 161.762 367.809 151.385 364.292 142.222C363.578 140.361 362.64 138.594 361.499 136.961C361.285 136.654 361.064 136.352 360.836 136.056C360.518 135.642 360.187 135.239 359.843 134.847C351.19 124.964 336.289 123.647 326.037 131.859C315.784 140.07 313.814 154.899 321.568 165.502Z"/><defs><linearGradient id="gradient_0" gradientUnits="userSpaceOnUse" x1="340.58386" y1="165.82553" x2="336.93048" y2="127.78069"><stop offset="0" stop-color="#B4B7BA" stop-opacity="0.64313728"/><stop offset="1" stop-color="#B4B6B8" stop-opacity="0.67843139"/></linearGradient></defs><path fill="url(#gradient_0)" d="M321.568 165.502C313.814 154.899 315.784 140.07 326.037 131.859C336.289 123.647 351.19 124.964 359.843 134.847C357.754 136.179 351.396 135.405 348.697 135.4C339.975 135.383 330.156 138.456 327.017 147.457C324.589 154.419 326.147 160.612 326.119 167.469C325.583 166.872 325.486 166.671 324.695 166.415C323.892 166.688 324.108 166.651 323.456 167.357C322.309 166.58 322.601 165.865 321.714 165.461L321.568 165.502Z"/><defs><linearGradient id="gradient_1" gradientUnits="userSpaceOnUse" x1="350.43805" y1="158.44524" x2="330.32639" y2="143.95027"><stop offset="0" stop-color="#DCDBDC" stop-opacity="0.29411766"/><stop offset="1" stop-color="#DCDCDB" stop-opacity="0.3764706"/></linearGradient></defs><path fill="url(#gradient_1)" d="M325.097 169.379C325.306 168.866 325.127 169.038 325.607 168.836C326.19 169.143 326.549 169.328 327.166 169.586C328.012 168.612 326.413 164.878 326.313 163.246C325.761 154.282 326.351 144.467 334.706 139.127C340.374 135.504 349.36 134.293 355.911 135.698C356.851 136.6 359.094 136.893 361.516 138.975L361.986 138.701C362.456 139.603 363.401 142.817 362.014 143.455C360.323 143.934 357.64 143.862 355.879 143.883C345.962 144.006 339.489 149.003 334.933 157.538C332.838 161.461 334.096 169.697 332.1 171.638C330.069 172.159 328.518 169.615 327.71 170.902L328.18 171.706C327.093 171.013 326.062 170.234 325.097 169.379Z"/><path fill="#D4D4D6" fill-opacity="0.17647059" d="M361.499 136.961C362.64 138.594 363.578 140.361 364.292 142.222L363.572 141.404L363.482 141.807L363.301 142.58C363.133 143.3 363.127 143.327 362.62 143.839C362.174 144.066 351.282 144.901 350.278 144.846C349.196 145.543 349.066 145.62 347.919 146.161C342.972 148.494 337.86 152.743 335.745 157.927C334.851 160.118 334.731 161.964 334.329 164.31C333.981 166.336 335.031 172.053 333.035 172.888C332.907 172.942 332.391 173.017 332.237 173.041C332.093 173.306 331.987 173.411 331.959 173.677C330.644 173.131 329.38 172.471 328.18 171.706L327.71 170.902C328.518 169.615 330.069 172.159 332.1 171.638C334.096 169.697 332.838 161.461 334.933 157.538C339.489 149.003 345.962 144.006 355.879 143.883C357.64 143.862 360.323 143.934 362.014 143.455C363.401 142.817 362.456 139.603 361.986 138.701C361.607 137.86 361.297 137.624 361.499 136.961Z"/><path fill="#B3B7BA" fill-opacity="0.54509807" d="M321.568 165.502L321.714 165.461C322.601 165.865 322.309 166.58 323.456 167.357C324.108 166.651 323.892 166.688 324.695 166.415C325.486 166.671 325.583 166.872 326.119 167.469C326.147 160.612 324.589 154.419 327.017 147.457C330.156 138.456 339.975 135.383 348.697 135.4C351.396 135.405 357.754 136.179 359.843 134.847C360.187 135.239 360.518 135.642 360.836 136.056L360.373 136.16C360.2 136.554 360.315 136.38 360.036 136.684L355.911 135.698C349.36 134.293 340.374 135.504 334.706 139.127C326.351 144.467 325.761 154.282 326.313 163.246C326.413 164.878 328.012 168.612 327.166 169.586C326.549 169.328 326.19 169.143 325.607 168.836C325.127 169.038 325.306 168.866 325.097 169.379C323.786 168.216 322.603 166.916 321.568 165.502Z"/><path fill="#D4D4D6" fill-opacity="0.34117648" d="M355.911 135.698L360.036 136.684C360.315 136.38 360.2 136.554 360.373 136.16L360.836 136.056C361.064 136.352 361.285 136.654 361.499 136.961C361.297 137.624 361.607 137.86 361.986 138.701L361.516 138.975C359.094 136.893 356.851 136.6 355.911 135.698Z"/><path fill="#8B9197" d="M98.8619 114.808L99.1444 115.263C101.001 113.516 102.565 111.007 104.331 109.384C111.687 102.623 121.026 100.108 130.856 100.367C139.614 100.599 147.734 102.816 154.549 108.453C157.104 110.566 159.451 112.991 161.894 115.234C168.849 120.494 174.749 128.302 176.292 137.064C176.631 138.806 175.709 143.276 175.572 145.374C175.117 152.394 175.869 159.439 177.794 166.205C178.065 167.181 178.301 169.728 178.421 169.94L178.573 172.07C178.235 175.549 178.236 179.544 178.291 183.061C178.415 191.079 178.066 199.259 178.29 207.259L178.156 208.102C177.034 208.206 174.952 207.902 174.105 207.954C171.119 208.136 158.075 207.708 156.133 208.494L155.447 208.055L155.356 207.857C153.304 207.85 149.276 208.317 147.869 207.305C146.748 205.619 147.349 202.214 147.502 200.025L145.993 200.055C143.654 199.889 140.884 199.993 138.508 200.023C138.012 191.614 139.112 146.43 137.507 143.307C137.731 140.823 136.898 137.808 135.576 135.706C133.083 129.161 125.706 127.368 119.464 127.252C115.869 127.266 110.761 127.536 107.386 128.995C108.721 132.297 100.828 146.799 102.624 148.067C102.732 148.144 102.872 148.162 102.996 148.21C98.9574 161.003 99.0304 167.465 99.0444 180.693L99.1865 207.982C91.9293 208.012 83.7864 207.811 76.6373 208.062L75.8091 207.98C73.6733 207.936 70.175 208.428 68.6453 207.459C67.5095 205.939 68.0357 202.546 68.1045 200.44C67.6111 199.544 60.7624 199.952 59.4949 199.98C59.2021 197.192 59.3246 191.736 59.32 188.828L59.3165 168.979L59.2926 102.093C64.5378 102.433 71.1379 102.192 76.5144 102.237C80.2251 102.268 86.9509 102.397 90.4708 102.035L90.4456 110.427C92.5909 110.096 96.7478 110.255 99.0182 110.318C99.0094 111.711 99.0616 113.459 98.8619 114.808ZM95.2777 139.217L101.033 139.227C101.345 137.684 103.453 131.578 103.246 130.883C99.7155 133.238 97.3854 135.455 95.2777 139.217Z"/><path fill="#D4D4D6" fill-opacity="0.96078432" d="M103.246 130.883C103.453 131.578 101.345 137.684 101.033 139.227L95.2777 139.217C97.3854 135.455 99.7155 133.238 103.246 130.883Z"/><path fill="#B3B7BA" d="M161.894 115.234C168.849 120.494 174.749 128.302 176.292 137.064C176.631 138.806 175.709 143.276 175.572 145.374C175.117 152.394 175.869 159.439 177.794 166.205C178.065 167.181 178.301 169.728 178.421 169.94L178.573 172.07C178.235 175.549 178.236 179.544 178.291 183.061C178.415 191.079 178.066 199.259 178.29 207.259L178.156 208.102C177.034 208.206 174.952 207.902 174.105 207.954C171.119 208.136 158.075 207.708 156.133 208.494L155.447 208.055L155.356 207.857C155.945 207.06 155.814 201.581 155.923 200.002L169.547 199.989C169.346 187.038 169.67 173.913 169.543 161.043C169.415 148.239 170.339 136.013 165.564 123.836C164.759 121.782 161.984 116.885 161.894 115.234Z"/><path fill="#B3B7BA" d="M103.246 130.883C103.672 130.895 106.283 129.398 107.386 128.995C108.721 132.297 100.828 146.799 102.624 148.067C102.732 148.144 102.872 148.162 102.996 148.21C98.9574 161.003 99.0304 167.465 99.0444 180.693L99.1865 207.982C91.9293 208.012 83.7864 207.811 76.6373 208.062L75.8091 207.98L76.2994 207.696C76.882 206.724 76.7038 201.447 76.7001 199.998L90.4792 199.989L90.4582 172.941C90.4538 162.966 89.879 147.817 95.2777 139.217L101.033 139.227C101.345 137.684 103.453 131.578 103.246 130.883Z"/><path fill="#B3B7BA" d="M84.6689 131.197C86.0146 127.126 87.394 123.067 88.8069 119.019C90.6235 118.991 95.1709 118.818 96.7331 119.211C94.6079 123.361 93.4005 126.714 92.3781 131.237C89.8083 131.238 87.2386 131.225 84.6689 131.197Z"/><path fill="#D4D4D6" d="M90.4456 110.427C92.5909 110.096 96.7478 110.255 99.0182 110.318C99.0094 111.711 99.0616 113.459 98.8619 114.808C98.333 116.709 97.8743 117.572 96.7331 119.211C95.1709 118.818 90.6235 118.991 88.8069 119.019C89.9763 115.637 90.5105 114.033 90.4456 110.427Z"/><path fill="#D4D4D6" d="M68.1045 200.44L68.4007 200.093C70.2826 199.873 74.6046 199.989 76.7001 199.998C76.7038 201.447 76.882 206.724 76.2994 207.696L75.8091 207.98C73.6733 207.936 70.175 208.428 68.6453 207.459C67.5095 205.939 68.0357 202.546 68.1045 200.44Z"/><path fill="#D4D4D6" d="M147.502 200.025L155.923 200.002C155.814 201.581 155.945 207.06 155.356 207.857C153.304 207.85 149.276 208.317 147.869 207.305C146.748 205.619 147.349 202.214 147.502 200.025Z"/><path fill="#8B9197" d="M176.292 137.064C176.484 136.728 176.524 136.713 176.606 136.405C183.552 110.31 205.26 99.1036 231.219 100.442C247.078 101.259 260.027 106.594 270.368 119.347C271.548 120.802 273.955 122.371 275.319 123.845L275.147 124.268C274.576 123.835 274.421 123.651 273.935 123.14L273.474 123.101L273.336 123.411C273.904 124.066 275.053 128.211 275.548 129.484C279.053 138.51 278.787 147.942 278.822 157.49L230.309 157.52C221.845 157.52 212.979 157.387 204.541 157.578C204.921 162.636 206.053 166.986 210.025 170.584C210.564 171.072 211.973 172.186 212.602 172.384C215.225 173.735 217.8 175.46 220.9 175.677C225.457 176.855 232.231 176.873 236.853 176.015C237.971 175.807 240.296 175.302 241.211 175.207L241.564 175.174C242.052 174.975 242.534 174.76 243.008 174.53C246.956 172.618 249.791 169.823 251.253 165.656C257.401 165.866 264.06 165.728 270.243 165.744C273.249 165.751 279.517 165.909 282.299 165.643L282.276 166.624C281.752 168.434 281.053 171.078 280.347 172.77L279.902 173.666C278.257 176.854 277.257 178.894 275.1 181.78C257.405 204.507 224.159 206.709 199.741 195.07C199.549 194.979 198.891 195.04 198.698 195.056C195.801 193.015 189.418 186.717 186.859 184.021C185.72 182.103 183.066 178.612 181.645 176.38C181.213 175.431 180.782 174.294 180.119 173.524C179.459 172.248 179.387 170.74 178.636 169.698L178.421 169.94C178.301 169.728 178.065 167.181 177.794 166.205C175.869 159.439 175.117 152.394 175.572 145.374C175.709 143.276 176.631 138.806 176.292 137.064ZM215.492 139.974C222.841 140.055 230.19 140.079 237.54 140.044C240.879 140.044 245.822 139.899 249.063 140.118L249.59 139.908C249.883 139.156 249.577 138.271 249.4 137.442L249.363 137.203C249.18 136.109 249.093 135.422 248.212 134.793C248.313 131.582 242.964 128.291 240.184 127.345C229.078 123.565 207.084 123.417 204.383 138.457C203.931 141.007 213.769 140.024 215.492 139.974Z"/><path fill="#B3B7BA" fill-opacity="0.92941177" d="M215.492 139.974C213.769 140.024 203.931 141.007 204.383 138.457C207.084 123.417 229.078 123.565 240.184 127.345C242.964 128.291 248.313 131.582 248.212 134.793C237.306 132.081 224.149 131.816 215.492 139.974Z"/><path fill="#D4D4D6" fill-opacity="0.79607844" d="M215.492 139.974C224.149 131.816 237.306 132.081 248.212 134.793C249.093 135.422 249.18 136.109 249.363 137.203L249.4 137.442C248.523 138.35 248.828 138.898 249.063 140.118C245.822 139.899 240.879 140.044 237.54 140.044C230.19 140.079 222.841 140.055 215.492 139.974Z"/><path fill="#D4D4D6" fill-opacity="0.76078433" d="M249.063 140.118C248.828 138.898 248.523 138.35 249.4 137.442C249.577 138.271 249.883 139.156 249.59 139.908L249.063 140.118Z"/><defs><linearGradient id="gradient_2" gradientUnits="userSpaceOnUse" x1="336.69479" y1="164.08868" x2="407.34567" y2="190.6503"><stop offset="0" stop-color="#DCDBDB" stop-opacity="0.34117648"/><stop offset="1" stop-color="#DCDCDC" stop-opacity="0.41960785"/></linearGradient></defs><path fill="url(#gradient_2)" d="M399.101 133.273C400.199 133.966 400.551 136.779 402.065 137.219C402.371 137.307 403.919 138.126 404.087 138.359C415.647 154.317 416.416 176.58 407.236 193.833C404.761 198.822 401.27 203.276 396.917 206.761C395.959 207.527 395.307 208.528 394.155 209.261C386.763 213.963 378.217 216.648 369.656 218.254C368.199 218.341 366.712 218.066 365.254 218.105C363.973 218.14 362.341 219.052 361.142 219.045C352.702 219 339.694 218.099 332.18 214.157C332.99 214.182 333.223 214.191 334.053 214.094L334.264 213.757C333.434 212.769 331.124 212.226 329.835 211.83C328.024 211.275 328.346 211.078 326.885 209.868C326.125 210.286 326.445 209.994 326.017 210.887C324.326 210.253 321.324 207.891 320.056 206.507L320.086 206.092C320.875 205.235 321.079 206.209 322.233 205.247L322.259 204.655C323.482 205.083 324.682 205.573 325.897 205.998C354.898 216.18 395.892 207.183 403.313 173.11C406.361 159.114 405.104 146.294 399.157 133.473C399.138 133.406 399.12 133.34 399.101 133.273Z"/><path fill="#B3B7BA" fill-opacity="0.71764708" d="M226.111 255.583L226.406 256.169C226.74 255.485 226.636 255.562 226.62 254.721L226.972 254.661L227.078 255.926C227.464 255.506 227.641 254.678 227.57 254.706C229.138 254.087 234.238 254.117 235.555 254.364C235.94 255.383 235.949 255.702 236.095 256.803L225.455 312.413C223.698 321.74 220.948 334.031 219.842 343.1L187.897 343.002C183.899 343 175.038 342.792 171.302 343.284L170.902 343.013C170.967 340.674 169.966 336.426 170.21 335.462L170.931 335.09C182.085 335.555 193.79 334.656 205.007 335.008C207.053 335.072 208.998 334.956 211.058 335.139L221.546 279.473L224.485 263.9C224.937 261.471 225.462 257.825 226.111 255.583Z"/><defs><linearGradient id="gradient_3" gradientUnits="userSpaceOnUse" x1="365.36569" y1="207.6582" x2="354.09433" y2="134.03262"><stop offset="0" stop-color="#B4B7B9" stop-opacity="0.70588237"/><stop offset="1" stop-color="#B5B5BA" stop-opacity="0.74509805"/></linearGradient></defs><path fill="url(#gradient_3)" d="M394.404 134.993C394.849 134.309 394.701 134.393 394.743 133.441L394.963 133.369L395.275 134.453C395.502 131.894 393.824 129.887 393.869 128.5C394.649 128.804 395.507 129.719 395.887 130.45L395.586 130.989L395.949 131.376L396.688 131.203C397.388 131.449 398.486 132.676 399.101 133.273C399.12 133.34 399.138 133.406 399.157 133.473C405.104 146.294 406.361 159.114 403.313 173.11C395.892 207.183 354.898 216.18 325.897 205.998C324.682 205.573 323.482 205.083 322.259 204.655C320.912 204.094 319.663 203.649 318.452 202.84L318.575 202.455C317.997 202.222 318.006 202.229 317.515 201.847L317.703 201.092C317.339 200.447 317.348 199.932 317.441 199.193C318.244 199.082 317.878 198.998 318.582 199.288C318.561 199.87 318.552 199.697 318.67 200.31C320.352 200.553 327.726 201.706 328.922 201.088C339.235 202.166 348.091 202.432 358.322 200.074C389.779 192.826 401.786 164.994 394.404 134.993Z"/><defs><linearGradient id="gradient_4" gradientUnits="userSpaceOnUse" x1="242.61975" y1="305.17145" x2="177.55461" y2="298.29416"><stop offset="0" stop-color="#DEDEDE" stop-opacity="0"/><stop offset="1" stop-color="#DCDCDC" stop-opacity="0.27843139"/></linearGradient></defs><path fill="url(#gradient_4)" d="M237.493 249.45C237.71 250.801 237.792 251.667 237.881 253.013C239.626 254.025 246.091 253.049 247.709 253.653C248.088 255.917 246.399 257.264 246.517 258.864C247.066 259.096 246.792 259.008 247.529 258.859L247.624 259.269C246.636 260.468 244.413 262.03 244.453 263.277C232.426 278.764 229.91 291.568 231.837 310.851C232.276 315.247 233.516 319.367 234.898 323.54L234.367 323.629L233.903 323.125C231.691 325.853 234.31 328.487 233.109 331.165C232.712 332.05 232.209 333.108 232.625 334.038C231.346 339.444 230.242 344.999 229.43 350.513C229.136 352.513 227.822 352.714 225.983 352.686C211.807 352.474 197.045 353.26 182.922 352.695C185.225 351.664 205.578 353.101 209.493 352.47C210.615 352.289 220.302 352.393 220.444 352.023C219.652 351.8 213.421 351.877 212.153 351.865C204.603 351.836 197.053 351.861 189.503 351.939C184.308 351.99 178.8 352.224 173.663 351.646C172.851 349.089 171.66 346.397 171.409 343.825C171.374 343.471 171.399 343.611 171.302 343.284C175.038 342.792 183.899 343 187.897 343.002L219.842 343.1C220.948 334.031 223.698 321.74 225.455 312.413L236.095 256.803L236.63 253.54C236.85 251.991 237.111 250.962 237.493 249.45ZM173.969 349.705L174.138 349.296C174.515 348.399 174.889 348.244 174.937 347.191C174.493 346.551 174.786 346.735 174.05 346.59C173.234 347.731 173.086 348.39 173.589 349.725L173.88 349.824L173.969 349.705Z"/><path fill="#D4D4D6" fill-opacity="0.31764707" d="M174.05 346.59C174.786 346.735 174.493 346.551 174.937 347.191C174.889 348.244 174.515 348.399 174.138 349.296L173.969 349.705L173.88 349.824L173.589 349.725C173.086 348.39 173.234 347.731 174.05 346.59Z"/><defs><linearGradient id="gradient_5" gradientUnits="userSpaceOnUse" x1="124.66352" y1="131.90639" x2="88.33593" y2="220.44595"><stop offset="0" stop-color="#DCDCDD" stop-opacity="0.80000001"/><stop offset="1" stop-color="#DFDFDF"/></linearGradient></defs><path fill="url(#gradient_5)" d="M112.963 138.109C123.357 134.027 125.519 135.489 135.576 135.706C136.898 137.808 137.731 140.823 137.507 143.307C136.222 144.404 127.92 144.754 125.366 145.77C122.45 146.931 121.007 147.48 118.2 149.267C107.515 158.09 107.486 174.558 107.515 187.296L107.559 208.993C107.552 210.588 107.939 216.045 107.169 216.873C106.165 217.21 77.992 216.719 76.9885 216.355C76.1898 214.74 76.5764 210.068 76.6373 208.062C83.7864 207.811 91.9293 208.012 99.1865 207.982L99.0444 180.693C99.0304 167.465 98.9574 161.003 102.996 148.21L103.288 148.107C104.707 148.439 108.217 148.246 109.83 148.206C110.291 146.272 112.718 139.473 112.67 138.332L112.963 138.109Z"/><defs><linearGradient id="gradient_6" gradientUnits="userSpaceOnUse" x1="100.39413" y1="309.34622" x2="148.24078" y2="330.91214"><stop offset="0" stop-color="#DCDDDD" stop-opacity="0.54509807"/><stop offset="1" stop-color="#DCDCDD" stop-opacity="0.68627453"/></linearGradient></defs><path fill="url(#gradient_6)" d="M140.396 295.581L140.674 295.93C141.001 294.868 141.583 293.72 141.781 292.574C142.11 290.672 142.284 289.054 142.722 287.156L142.751 287.352C143.04 286.46 143.984 283.247 144.446 282.71C144.898 283.022 144.709 282.815 144.874 283.471C145.658 283.61 145.526 283.496 146.415 283.092L146.568 283.794L146.899 283.309C147.405 285.078 150.048 298.863 149.957 300.533L149.568 300.746C148.165 305.96 148.017 310.379 147.157 315.47C146.146 321.446 144.849 327.508 143.857 333.521C142.84 339.681 142.162 345.936 140.192 351.859C134.818 352.157 88.3696 352.669 85.9743 351.54C85.5965 350.99 85.5845 351.032 85.3313 350.43C86.149 351.074 86.5999 351.659 87.5991 351.121C87.3387 350.072 86.577 347.129 85.6332 346.752C85.1772 347.567 85.3169 348.782 85.2999 349.797C84.615 348.362 84.0706 344.917 84.0421 343.322C86.0415 342.942 94.0961 343.041 96.5234 343.038L122.066 342.998C125.087 342.992 129.122 343.242 131.978 343.086C132.316 342.426 132.29 342.31 132.399 341.59L132.499 341.775L132.707 341.777C133.089 340.445 133.61 335.755 134.174 335.309C134.056 336.653 133.99 337.693 133.965 339.053C134.663 337.737 137.045 319.489 136.584 317.616C137.008 313.759 138.014 308.989 138.651 305.072C139.059 302.565 139.775 297.814 140.396 295.581Z"/><path fill="#082B4A" d="M238.921 371.287C240.468 371.211 242.239 371.095 243.78 371.19C244.964 371.262 244.854 371.311 245.469 371.997C246.056 372.901 246.309 373.228 247.035 374.026C247.492 376.104 248.47 387.115 248.918 387.758C250.154 382.531 251.009 376.457 252.833 371.547C252.945 371.245 256.304 370.553 257.526 372.338C257.95 372.688 258.887 373.482 259.071 373.964C260.238 377.04 262.152 384.467 261.958 387.668L262.732 388.717C263.607 383.623 263.772 376.723 264.487 371.257C265.846 371.23 269.615 370.996 270.682 371.673C271.09 372.629 271.105 372.738 272.031 373.287C272.992 374.542 272.352 378.853 272.151 380.46L270.095 399.663C269.731 403.234 269.389 408.112 268.825 411.571C266.563 411.545 263.57 411.825 261.795 410.565C261.299 410.35 260.807 410.126 260.319 409.893C259.189 408.338 257.235 397.494 256.295 394.295C255.795 394.516 255.813 394.382 255.675 394.824C254.029 400.076 253.479 406.316 252.048 411.554C249.825 411.545 246.609 411.854 244.928 410.499C243.647 410.022 242.971 409.681 242.815 408.199C241.539 396.06 239.748 383.431 238.921 371.287Z"/><path fill="#9DA9B3" d="M270.682 371.673C271.09 372.629 271.105 372.738 272.031 373.287C272.992 374.542 272.352 378.853 272.151 380.46L270.095 399.663C269.731 403.234 269.389 408.112 268.825 411.571C266.563 411.545 263.57 411.825 261.795 410.565C263.094 410.322 264.979 410.144 266.336 409.974C266.982 407.555 268.264 396.373 268.521 393.339C268.963 388.116 270.965 376.288 270.682 371.673Z"/><path fill="#8B9197" d="M272.031 373.287C272.992 374.542 272.352 378.853 272.151 380.46C271.238 379.355 271.44 374.579 272.031 373.287Z"/><path fill="#9DA9B3" d="M254.259 389.672C254.816 389.827 255.004 389.861 255.53 390.09C255.755 391.02 256.52 393.574 256.295 394.295C255.795 394.516 255.813 394.382 255.675 394.824C254.029 400.076 253.479 406.316 252.048 411.554C249.825 411.545 246.609 411.854 244.928 410.499C245.711 410.322 248.363 410.103 249.43 409.946C250.845 406.142 253.271 394.148 254.259 389.672Z"/><defs><linearGradient id="gradient_7" gradientUnits="userSpaceOnUse" x1="245.44569" y1="383.92526" x2="248.33853" y2="384.091"><stop offset="0" stop-color="#9FA3BA"/><stop offset="1" stop-color="#99ACB0"/></linearGradient></defs><path fill="url(#gradient_7)" d="M245.469 371.997C246.056 372.901 246.309 373.228 247.035 374.026C247.492 376.104 248.47 387.115 248.918 387.758C249.019 388.848 247.699 394.319 247.406 395.635C246.531 388.207 246.079 379.553 245.469 371.997Z"/><defs><linearGradient id="gradient_8" gradientUnits="userSpaceOnUse" x1="258.85269" y1="381.44925" x2="261.09897" y2="381.30386"><stop offset="0" stop-color="#A0A7BB"/><stop offset="1" stop-color="#9AAAB0"/></linearGradient></defs><path fill="url(#gradient_8)" d="M261.115 390.023C259.853 384.807 258.379 377.601 257.526 372.338C257.95 372.688 258.887 373.482 259.071 373.964C260.238 377.04 262.152 384.467 261.958 387.668C261.345 388.699 261.273 388.838 261.115 390.023Z"/><path fill="#9DA9B3" d="M261.958 387.668L262.732 388.717C262.718 391.008 262.728 393.705 262.619 395.99C261.844 393.695 261.526 392.43 261.115 390.023C261.273 388.838 261.345 388.699 261.958 387.668Z"/><path fill="#8B9197" d="M254.259 389.672C254.398 388.756 254.26 388.462 254.788 387.981C255.335 388.647 255.359 389.237 255.53 390.09C255.004 389.861 254.816 389.827 254.259 389.672Z"/><defs><linearGradient id="gradient_9" gradientUnits="userSpaceOnUse" x1="254.85388" y1="194.1308" x2="261.82352" y2="216.44623"><stop offset="0" stop-color="#DCDCDC" stop-opacity="0.58039218"/><stop offset="1" stop-color="#DCDCDD" stop-opacity="0.64313728"/></linearGradient></defs><path fill="url(#gradient_9)" d="M295.669 182.289C296.111 182.837 297.766 184.806 298.077 185.292C297.968 189.265 294.645 194.796 292.486 198.012C285.223 208.83 272.204 215.607 259.601 217.887C252.73 219.13 240.933 219.738 234.101 217.795C234.6 217.724 234.997 217.65 235.492 217.558L235.571 217.189L234.688 216.344C234.017 216.046 234.355 216.055 233.674 216.178C233.57 216.994 233.7 216.904 234.101 217.795C231.261 217.299 227.239 216.179 224.42 215.233L225.299 214.788L225.376 214.31C224.678 213.776 225.078 213.963 224.068 213.902C223.327 214.322 223.567 214.028 223.265 214.762C222.514 214.623 220.729 213.587 219.784 213.211C220.475 212.627 220.325 212.973 220.422 212.23C217.987 210.445 211.68 206.821 209.95 204.797C211.716 205.655 213.111 206.649 214.992 206.396L215.163 206.043C217.677 206.705 220.228 207.539 222.729 208.101L222.011 208.372L221.943 208.763C222.986 209.324 223.637 209.319 224.775 208.993L224.954 208.531C240.539 210.903 258.381 210.019 271.721 200.684C277.152 197.758 284.345 189.421 287.071 183.85C287.369 183.24 287.227 183.229 287.814 182.702C288.815 182.591 295.485 182.363 295.669 182.289Z"/><defs><linearGradient id="gradient_10" gradientUnits="userSpaceOnUse" x1="257.28732" y1="118.64449" x2="240.93716" y2="179.50528"><stop offset="0" stop-color="#B5B5B9" stop-opacity="0.80784315"/><stop offset="1" stop-color="#B5B8BB" stop-opacity="0.94117647"/></linearGradient></defs><path fill="url(#gradient_10)" d="M278.822 157.49C278.787 147.942 279.053 138.51 275.548 129.484C275.053 128.211 273.904 124.066 273.336 123.411L273.474 123.101L273.935 123.14C274.421 123.651 274.576 123.835 275.147 124.268L275.319 123.845C277.505 125.822 280.85 129.979 282.347 132.486C283.051 134.643 285.572 141.584 286.524 143.51C286.295 149.577 286.053 159.412 287.919 165.236C285.667 165.658 285.524 164.319 284.288 164.869L284.186 165.641C283.526 165.618 282.955 165.628 282.299 165.643C279.517 165.909 273.249 165.751 270.243 165.744C264.06 165.728 257.401 165.866 251.253 165.656C239.175 165.322 224.873 165.288 212.802 165.524C213 167.079 213.27 170.462 213.241 172.021C213.028 172.142 212.815 172.263 212.602 172.384C211.973 172.186 210.564 171.072 210.025 170.584C206.053 166.986 204.921 162.636 204.541 157.578C212.979 157.387 221.845 157.52 230.309 157.52L278.822 157.49Z"/><path fill="#082B4A" d="M219.963 410.04C217.926 409.079 216.375 407.368 216.1 405.028C215.567 400.498 215.787 395.963 215.755 391.403C215.722 386.64 215.778 382.004 216.125 377.25C216.68 369.632 223.329 371.405 228.75 371.252C231.539 371.174 233.474 372.888 235.135 374.799C235.886 375.692 237.035 377.066 237.088 378.281C237.481 387.172 237.309 396.113 237.205 405.024C237.11 413.102 230.228 411.337 224.489 411.31C222.964 411.302 221.283 410.755 219.963 410.04ZM225.785 403.656C226.977 403.564 227.931 403.607 228.818 402.83C229.161 401.223 229.03 396.649 229.029 394.723L229.009 379.322C227.209 379.537 226.078 379.502 224.254 379.465C224.374 386.169 224.105 396.196 224.431 403.154C224.539 403.281 224.648 403.408 224.756 403.535L225.785 403.656Z"/><defs><linearGradient id="gradient_11" gradientUnits="userSpaceOnUse" x1="226.61307" y1="393.289" x2="237.69113" y2="394.31241"><stop offset="0" stop-color="#8696A8"/><stop offset="1" stop-color="#A5ADB5"/></linearGradient></defs><path fill="url(#gradient_11)" d="M235.135 374.799C235.886 375.692 237.035 377.066 237.088 378.281C237.481 387.172 237.309 396.113 237.205 405.024C237.11 413.102 230.228 411.337 224.489 411.31C222.964 411.302 221.283 410.755 219.963 410.04C225.373 410.084 234.657 411.633 235.069 404.117C235.604 394.371 235.209 384.555 235.135 374.799Z"/><path fill="#9DA9B3" d="M225.785 403.656C224.638 403.712 223.614 403.809 222.692 403.083C221.956 400.935 222.495 383.723 222.402 380.074C222.39 379.591 222.435 378.293 222.867 377.936C223.804 377.161 226.907 377.439 228.072 377.663C228.856 378.325 228.625 378.19 229.009 379.322C227.209 379.537 226.078 379.502 224.254 379.465C224.374 386.169 224.105 396.196 224.431 403.154C224.539 403.281 224.648 403.408 224.756 403.535L225.785 403.656Z"/><defs><linearGradient id="gradient_12" gradientUnits="userSpaceOnUse" x1="259.3855" y1="209.7048" x2="230.40297" y2="172.77936"><stop offset="0" stop-color="#B4B7BA" stop-opacity="0.87058824"/><stop offset="1" stop-color="#B8B8BC" stop-opacity="0.90588236"/></linearGradient></defs><path fill="url(#gradient_12)" d="M198.698 195.056C198.891 195.04 199.549 194.979 199.741 195.07C224.159 206.709 257.405 204.507 275.1 181.78C276.924 182.847 276.634 182.436 278.66 182.535C281.313 182.664 284.35 182.469 286.91 183.199C285.829 185.193 286.261 184.468 285.039 185.863C283.194 187.97 278.163 194.025 276.859 196.195C275.531 196.452 272.321 199.419 271.721 200.684C258.381 210.019 240.539 210.903 224.954 208.531C224.346 208.368 223.378 208.219 222.729 208.101C220.228 207.539 217.677 206.705 215.163 206.043C213.271 205.14 208.315 202.87 206.468 202.389C204.005 201.28 200.596 197.156 198.698 195.056Z"/><path fill="#082B4A" d="M166.231 371.272C168.074 371.186 170.022 371.262 171.876 371.301C175.378 375.685 178.167 384.63 179.883 390.066C180.539 385.6 180.257 376.058 180.228 371.286C181.686 371.252 186.098 370.746 186.71 372.087C187.156 376.001 186.918 384.057 186.911 388.42C186.9 394.907 187.26 403.74 186.664 410.052C185.433 410.187 183.88 410.2 182.904 410.851C182.583 410.554 181.222 410.013 180.734 409.799C178.587 405.889 176.556 397.23 174.933 394.85C174.324 397.894 174.838 407.638 174.554 411.727C172.85 411.308 170.436 411.14 169.168 410.61C168.054 410.306 167.609 410.236 166.621 409.681C165.893 407.819 166.24 375.734 166.231 371.272Z"/><path fill="#9DA9B3" d="M172.721 388.016C173.239 389.376 174.898 393.544 174.933 394.85C174.324 397.894 174.838 407.638 174.554 411.727C172.85 411.308 170.436 411.14 169.168 410.61C170.262 410.442 171.396 410.347 172.5 410.236C173.058 404.093 172.745 394.35 172.721 388.016Z"/><path fill="#082B4A" d="M275.709 390.901C275.194 386.856 275.611 381.656 275.634 377.58C275.665 371.974 280.176 371.081 284.663 371.166C289.39 371.255 291.697 370.685 294.92 374.759C297.782 377.248 297.01 382.525 297.093 386.1C295.455 385.813 294.489 385.72 292.831 385.612C291.228 385.519 290.331 384.921 288.907 384.207C287.98 383.152 288.274 380.986 288.306 379.488C286.782 379.618 286.102 379.693 284.544 379.546C284.468 381.909 284.436 384.455 284.212 386.793C286.274 387.442 294.273 389.631 295.131 391.121C295.747 391.865 296.112 392.2 296.828 392.861C297.074 395.768 296.987 398.924 296.988 401.693C296.991 410.406 296.249 411.84 287.218 411.47C284.314 411.35 282.602 411.699 279.857 410.019C274.736 407.316 275.516 402.228 275.513 397.247C277.387 397.139 280.042 397.237 281.973 397.251C282.145 397.764 282.395 398.616 282.858 398.906C284.579 399.983 283.94 401.505 284.051 403.23C285.102 404.006 286.843 403.502 288.233 403.296C288.422 400.424 288.387 398.426 288.228 395.589C283.98 395.557 279.195 393.164 275.709 390.901Z"/><path fill="#9DA9B3" d="M295.131 391.121C295.747 391.865 296.112 392.2 296.828 392.861C297.074 395.768 296.987 398.924 296.988 401.693C296.991 410.406 296.249 411.84 287.218 411.47C284.314 411.35 282.602 411.699 279.857 410.019C290.135 409.758 295.944 411.754 295.018 398.749C294.873 396.704 294.986 393.15 295.131 391.121Z"/><path fill="#9DA9B3" d="M284.212 386.793C283.432 386.729 283.483 386.743 282.792 386.378C281.783 384.954 281.747 379.31 283.104 377.972C284.407 377.609 286.351 377.65 287.658 377.977C288.349 378.691 288.142 378.369 288.306 379.488C286.782 379.618 286.102 379.693 284.544 379.546C284.468 381.909 284.436 384.455 284.212 386.793Z"/><path fill="#B3B7BA" d="M294.92 374.759C297.782 377.248 297.01 382.525 297.093 386.1C295.455 385.813 294.489 385.72 292.831 385.612C293.454 385.17 293.461 384.687 294.041 384.1L294.766 383.837C295.643 381.658 294.438 377.334 294.92 374.759Z"/><path fill="#8B9197" d="M288.907 384.207C290.556 384.215 292.378 384.136 294.041 384.1C293.461 384.687 293.454 385.17 292.831 385.612C291.228 385.519 290.331 384.921 288.907 384.207Z"/><path fill="#082B4A" d="M326.953 371.306C328.111 371.208 329.705 371.14 330.877 371.2C337.287 371.525 342.261 369.292 346.362 375.53C348.005 377.953 347.695 382.294 347.761 385.21C348.045 397.725 347.849 399.524 334.977 398.635C335.521 401.37 335.206 408.476 335.31 411.649C333.617 411.312 330.291 411.066 329.165 410.621C328.676 410.389 327.641 410.022 327.099 409.811C326.774 404.406 326.881 396.726 326.814 391.188C326.744 385.494 326.508 376.784 326.953 371.306ZM339.582 379.551C338.176 379.531 336.612 379.537 335.219 379.467C335.408 381.008 335.308 389.896 335.614 390.351C336.777 390.579 337.132 390.573 338.335 390.585C338.746 390.437 338.856 390.329 339.232 390.094C339.913 388.414 339.571 381.782 339.582 379.551Z"/><path fill="#9DA9B3" d="M333.49 397.136C336.706 397.084 341.835 397.357 344.308 395.18C345.09 394.48 345.659 393.574 345.949 392.565C346.701 389.992 346.054 379.562 346.329 375.933L346.362 375.53C348.005 377.953 347.695 382.294 347.761 385.21C348.045 397.725 347.849 399.524 334.977 398.635C335.521 401.37 335.206 408.476 335.31 411.649C333.617 411.312 330.291 411.066 329.165 410.621L333.399 410.257C333.663 406.227 333.517 401.235 333.49 397.136Z"/><path fill="#B3B7BA" d="M333.501 377.782C334.885 377.754 337.633 377.511 338.857 378.049C339.537 378.347 339.46 378.849 339.582 379.551C338.176 379.531 336.612 379.537 335.219 379.467C335.408 381.008 335.308 389.896 335.614 390.351C336.777 390.579 337.132 390.573 338.335 390.585C337.2 390.777 334.774 390.747 333.533 390.763C333.405 386.617 333.505 381.967 333.501 377.782Z"/><path fill="#082B4A" d="M306.188 371.27C308.642 371.173 311.594 370.934 313.963 371.31C314.345 371.919 314.683 372.55 315.033 373.178C315.512 377.842 316.509 381.603 317.384 386.137C317.91 388.483 318.425 390.946 318.991 393.273C319.581 396.156 322.34 407.545 322.067 409.684C321.345 410.293 321.111 409.744 320.139 410.571L320.107 410.941C320.065 411.386 320.112 411.218 319.993 411.518C315.155 409.703 315.675 408.823 314.922 404.183C312.848 404.313 309.626 404.339 307.583 404.038C307.469 406.453 307.336 409.364 306.588 411.672C303.93 411.559 300.638 411.985 299.389 410.182C299.324 410.137 299.259 410.093 299.194 410.048C298.766 410.009 298.783 409.969 298.369 409.806C297.647 408.031 302.896 386.903 303.496 382.957C303.825 380.796 305.466 373.552 306.188 371.27ZM309.547 396.73C310.813 396.476 311.918 396.565 313.208 396.591C312.455 393.775 312.183 388.869 310.971 386.361C310.704 387.807 309.47 395.761 309.547 396.73Z"/><path fill="#9DA9B3" d="M305.865 402.244C308.489 402.218 311.688 402.1 314.258 402.324C314.88 402.825 314.729 403.146 314.922 404.183C312.848 404.313 309.626 404.339 307.583 404.038C307.469 406.453 307.336 409.364 306.588 411.672C303.93 411.559 300.638 411.985 299.389 410.182C299.324 410.137 299.259 410.093 299.194 410.048C301.105 410.322 302.45 410.182 304.328 409.957C304.931 407.429 305.385 404.802 305.865 402.244Z"/><path fill="#9DA9B3" d="M309.547 396.73C308.713 396.77 308.088 396.897 307.353 396.538C307.149 394.714 309.835 381.545 310.498 379.392C310.598 380.597 311.321 385.847 310.971 386.361C310.704 387.807 309.47 395.761 309.547 396.73Z"/><path fill="#082B4A" d="M191.638 371.289L202.964 371.237C205.067 371.229 208.361 371.11 210.333 371.416C211.127 372.047 210.929 372.069 211.334 373.211C210.992 374.776 210.983 376.211 210.915 377.809C211.924 378.923 211.406 377.571 212.08 378.849C211.689 379.374 211.634 379.312 210.986 379.51C207.542 379.499 203.304 379.603 199.925 379.434C199.995 380.348 200.103 387.213 200.231 387.448C202.38 387.351 205.933 386.983 207.809 387.837C208.35 388.425 208.275 388.448 208.392 389.262C209.48 389.635 209.746 389.483 210.212 390.603C210.767 391.938 210.503 394.24 210.573 395.773C207.422 395.406 203.194 395.622 199.797 395.467C200.075 397.659 200.157 401.657 199.546 403.781C201.492 403.744 209.113 403.419 210.635 403.994C210.703 404.094 210.933 404.404 210.958 404.501C211.664 406.086 211.745 405.415 212.561 406.219C213.687 407.328 213.464 409.7 213.072 411.162L212.631 411.591C212.247 411.571 211.841 411.559 211.458 411.519C206.391 411.494 199.818 411.626 194.682 411.154C194.353 411.124 193.28 410.391 192.944 410.158C192.248 410.091 192.586 410.163 191.93 409.672C191.203 407.488 191.571 375.898 191.638 371.289Z"/><path fill="#9DA9B3" d="M208.03 393.706C208.22 392.326 208.061 390.345 208.392 389.262C209.48 389.635 209.746 389.483 210.212 390.603C210.767 391.938 210.503 394.24 210.573 395.773C207.422 395.406 203.194 395.622 199.797 395.467C200.075 397.659 200.157 401.657 199.546 403.781C198.894 403.746 199.085 403.779 198.481 403.595C197.7 402.185 198.062 395.716 198.098 393.766L208.03 393.706Z"/><path fill="#9DA9B3" d="M198.053 377.76C201.988 377.752 207.116 377.58 210.915 377.809C211.924 378.923 211.406 377.571 212.08 378.849C211.689 379.374 211.634 379.312 210.986 379.51C207.542 379.499 203.304 379.603 199.925 379.434C199.995 380.348 200.103 387.213 200.231 387.448C199.344 387.533 199.313 387.52 198.48 387.407C197.859 386.39 198.101 379.54 198.053 377.76Z"/><path fill="#8B9197" d="M192.944 410.158C195.353 410.66 208.178 410.12 210.929 409.94C211.102 410.599 211.151 410.909 211.458 411.519C206.391 411.494 199.818 411.626 194.682 411.154C194.353 411.124 193.28 410.391 192.944 410.158Z"/><path fill="#B3B7BA" d="M210.929 409.94C211.006 408.341 211.186 406.021 210.958 404.501C211.664 406.086 211.745 405.415 212.561 406.219C213.687 407.328 213.464 409.7 213.072 411.162L212.631 411.591C212.247 411.571 211.841 411.559 211.458 411.519C211.151 410.909 211.102 410.599 210.929 409.94Z"/><defs><linearGradient id="gradient_13" gradientUnits="userSpaceOnUse" x1="178.2234" y1="175.68445" x2="169.61191" y2="217.96243"><stop offset="0" stop-color="#DCDCDD" stop-opacity="0.6901961"/><stop offset="1" stop-color="#DCDDDE" stop-opacity="0.78039217"/></linearGradient></defs><path fill="url(#gradient_13)" d="M181.645 176.38C183.066 178.612 185.72 182.103 186.859 184.021C186.081 185.758 186.909 212.322 186.34 216.959C182.312 217.061 158.504 217.519 156.169 216.398C155.071 214.573 155.81 210.037 155.447 208.055L156.133 208.494C158.075 207.708 171.119 208.136 174.105 207.954C174.952 207.902 177.034 208.206 178.156 208.102L178.29 207.259L178.648 207.189C180.286 205.246 177.512 181.253 180.369 176.589C180.987 176.257 180.944 176.284 181.645 176.38Z"/><path fill="#B3B7BA" fill-opacity="0.85490197" d="M82.3987 254.435C84.0028 254.066 87.1308 253.625 88.5915 254.341L89.0643 254.134C89.1298 253.314 89.2057 252.758 89.341 251.947L89.9723 253.93C90.0417 254.903 90.4333 258.647 90.7154 259.411C90.7632 261.632 92.6116 270.527 93.0792 273.109C94.8979 283.462 96.7991 293.801 98.7826 304.124C98.9557 305.004 99.1396 307.419 99.2958 307.816C97.1393 307.671 94.135 307.752 91.9157 307.746C91.2781 302.516 89.6193 294.645 88.6608 289.285L82.3987 254.435Z"/><path fill="#D4D4D6" fill-opacity="0.7764706" d="M212.602 172.384C212.815 172.263 213.028 172.142 213.241 172.021C213.27 170.462 213 167.079 212.802 165.524C224.873 165.288 239.175 165.322 251.253 165.656C249.791 169.823 246.956 172.618 243.008 174.53C242.534 174.76 242.052 174.975 241.564 175.174C239.648 173.664 234.332 174.485 231.709 174.367C228.871 174.239 225.619 174.398 222.765 174.449C221.985 174.5 221.565 174.773 220.991 175.279L220.9 175.677C217.8 175.46 215.225 173.735 212.602 172.384Z"/><path fill="#D4D4D6" fill-opacity="0.56862748" d="M90.7154 259.411L91.1465 260.669C92.152 259.224 91.0625 256.772 92.8779 255.739C94.1445 256.079 94.3114 256.186 95.6216 256.181C96.5918 259.41 96.7975 263.265 97.5946 266.478C98.6603 270.774 99.8306 274.978 100.896 279.292C101.716 281.715 101.766 282.932 102.174 285.434C102.191 288.387 101.887 290.896 101.365 293.794C101.085 295.348 100.94 295.972 101.489 297.472C101.226 299.023 100.223 307.083 99.2958 307.816C99.1396 307.419 98.9557 305.004 98.7826 304.124C96.7991 293.801 94.8979 283.462 93.0792 273.109C92.6116 270.527 90.7632 261.632 90.7154 259.411Z"/><path fill="#D4D4D6" fill-opacity="0.44313726" d="M180.865 272.463L181.168 272.491C181.567 271.771 181.315 271.885 181.854 271.694C182.182 272.933 181.407 272.815 181.898 273.211C182.625 271.048 179.381 259.389 179.137 256.25C179.081 255.534 182.984 255.448 183.697 255.71C184.045 256.355 184.432 257.264 184.533 257.981C185.53 265.028 186.918 272.007 188.265 278.978C188.619 280.808 189.653 292.299 188.497 293.569L187.698 293.532C187.161 294.151 187.005 294.76 187.229 295.56L187.613 295.624C187.742 295.077 187.774 294.869 187.828 294.309L188.161 294.32C188.487 295.038 188.163 296.224 187.835 296.908C186.677 296.526 186.386 295.385 185.957 294.342L185.83 294.252L185.351 295.168C185.076 294.116 184.986 292.449 184.556 291.648C184.363 292.208 184.394 292.048 184.331 292.649C183.684 286.529 181.474 278.814 180.865 272.463Z"/><path fill="#D4D4D6" fill-opacity="0.94117647" d="M107.386 128.995C110.761 127.536 115.869 127.266 119.464 127.252C119.083 129.655 114.213 135.01 112.963 138.109L112.67 138.332C108.719 140.401 105.36 144.201 103.288 148.107L102.996 148.21C102.872 148.162 102.732 148.144 102.624 148.067C100.828 146.799 108.721 132.297 107.386 128.995Z"/><path fill="#D4D4D6" fill-opacity="0.7764706" d="M290.358 173.141C290.578 173.586 290.957 174.256 291.057 174.707C289.97 176.557 288.862 180.552 287.814 182.702C287.227 183.229 287.369 183.24 287.071 183.85C284.345 189.421 277.152 197.758 271.721 200.684C272.321 199.419 275.531 196.452 276.859 196.195C278.163 194.025 283.194 187.97 285.039 185.863C286.261 184.468 285.829 185.193 286.91 183.199C284.35 182.469 281.313 182.664 278.66 182.535C276.634 182.436 276.924 182.847 275.1 181.78C277.257 178.894 278.257 176.854 279.902 173.666C282.498 173.11 289.029 173.768 290.358 173.141Z"/><path fill="#B3B7BA" fill-opacity="0.9254902" d="M119.464 127.252C125.706 127.368 133.083 129.161 135.576 135.706C125.519 135.489 123.357 134.027 112.963 138.109C114.213 135.01 119.083 129.655 119.464 127.252Z"/><path fill="#D4D4D6" fill-opacity="0.31764707" d="M181.472 253.717C182.479 254.097 183.66 254.429 184.252 255.374C186.804 259.449 189.113 286.539 190.688 288.452L190.914 288.505C190.647 290.139 188.927 299.652 188.466 300.964C188.406 300.461 188.407 299.877 187.967 299.631C187.42 300.198 187.679 300.095 187.008 300.282L186.214 299.501L186.077 299.505C185.785 300.272 185.897 300.82 185.948 301.641C185.341 298.679 185.092 295.649 184.331 292.649C184.394 292.048 184.363 292.208 184.556 291.648C184.986 292.449 185.076 294.116 185.351 295.168L185.83 294.252L185.957 294.342C186.386 295.385 186.677 296.526 187.835 296.908C188.163 296.224 188.487 295.038 188.161 294.32L187.828 294.309C187.774 294.869 187.742 295.077 187.613 295.624L187.229 295.56C187.005 294.76 187.161 294.151 187.698 293.532L188.497 293.569C189.653 292.299 188.619 280.808 188.265 278.978C186.918 272.007 185.53 265.028 184.533 257.981C184.432 257.264 184.045 256.355 183.697 255.71C182.984 255.448 179.081 255.534 179.137 256.25C179.381 259.389 182.625 271.048 181.898 273.211C181.407 272.815 182.182 272.933 181.854 271.694C181.315 271.885 181.567 271.771 181.168 272.491L180.865 272.463C180.136 267.1 178.652 260.685 177.788 255.049L178.307 255.144C179.142 254.171 180.251 253.957 181.472 253.717Z"/><path fill="#D4D4D6" fill-opacity="0.57254905" d="M227.131 250.588C227.258 250.749 227.384 250.91 227.511 251.071L227.612 249.666L227.929 250.151C228.828 249.612 227.77 247.736 229.906 245.926C231.248 245.908 236.15 245.743 237.162 246.005C237.814 246.809 237.727 247.176 237.804 248.273L237.484 249C237.437 247.692 237.642 247.747 237.041 246.81C235.545 247.039 234.396 252.532 236.339 253.59L236.63 253.54L236.095 256.803C235.949 255.702 235.94 255.383 235.555 254.364C234.238 254.117 229.138 254.087 227.57 254.706C227.641 254.678 227.464 255.506 227.078 255.926L226.972 254.661L226.62 254.721C226.636 255.562 226.74 255.485 226.406 256.169L226.111 255.583C226.264 254.299 226.677 251.718 227.131 250.588Z"/><path fill="#9DA9B3" fill-opacity="0.98823529" d="M186.664 410.052C187.26 403.74 186.9 394.907 186.911 388.42C186.918 384.057 187.156 376.001 186.71 372.087C187.256 372.915 187.314 372.996 188.182 373.469C188.597 374.509 188.771 410.593 188.412 411.653C187.158 411.692 184.046 411.318 182.904 410.851C183.88 410.2 185.433 410.187 186.664 410.052Z"/><path fill="#D4D4D6" fill-opacity="0.7647059" d="M81.1385 245.389C83.6569 244.764 88.2872 244.183 88.8099 247.984C88.9582 249.062 89.4139 251.006 89.341 251.947C89.2057 252.758 89.1298 253.314 89.0643 254.134L88.5915 254.341C87.1308 253.625 84.0028 254.066 82.3987 254.435C81.9286 251.688 81.1132 248.078 81.1385 245.389Z"/><path fill="#B3B7BA" fill-opacity="0.027450981" d="M321.892 399.691L322.416 399.945C322.572 400.555 322.619 400.879 322.884 401.454C323.813 400.352 319.555 386.11 320.203 384.317L320.718 384.22L320.925 383.813C321.394 384.777 321.255 386.884 321.504 388.125C322.228 391.727 323.005 395.341 323.764 398.937C324.022 400.162 324.23 402.248 324.587 403.214C324.971 401.918 324.551 400.8 324.556 399.796C324.574 396.456 323.965 371.686 325.158 370.842C326.232 372.486 324.582 400.435 325.751 404.9C325.945 405.641 325.71 408.434 325.087 408.942C324.748 407.286 324.431 405.771 324.203 404.093L324.009 404.077L323.564 404.603L323.918 404.091L323.805 404.115C323.556 405.145 323.58 404.619 323.892 405.752C323.465 405.94 323.704 405.895 323.166 405.827C322.655 403.87 322.279 401.69 321.892 399.691Z"/><path fill="#D4D4D6" fill-opacity="0.7764706" d="M75.7521 335.154C77.5159 334.958 80.6032 335.028 82.4691 335.015C82.9482 337.519 83.6235 340.48 83.0651 342.935C81.5614 343.142 79.0347 343.051 77.5113 342.982C78.3302 342.852 78.2633 342.947 78.9493 342.561C79.1519 341.732 79.1759 342.129 78.8737 341.33C78.1945 340.759 78.2484 340.793 77.3732 340.627L76.7553 341.434C76.7181 339.989 75.7896 337.718 75.7521 335.154Z"/><path fill="#D4D4D6" fill-opacity="0.65490198" d="M163.521 335.193C165.99 335.099 168.461 335.064 170.931 335.09L170.21 335.462C169.966 336.426 170.967 340.674 170.902 343.013C169.276 343.1 166.53 343.218 164.988 342.85C166.437 342.549 169.286 342.725 169.956 342.034C169.178 341.5 168.215 341.648 167.214 341.34L167.263 340.926L166.685 340.119C166.57 340.051 166.455 339.984 166.34 339.916L166.094 340C165.749 340.669 165.906 340.907 165.939 341.779L165.578 341.849L165.027 340.641C164.789 341.033 164.958 342.27 164.988 342.85C164.096 341.164 163.701 337.123 163.521 335.193Z"/><path fill="#D4D4D6" fill-opacity="0.52156866" d="M282.299 165.643C282.955 165.628 283.526 165.618 284.186 165.641C284.807 166.039 287.242 167.584 287.514 168.051C288.229 169.276 287.989 172.441 289.497 172.998C289.681 172.914 289.994 172.789 290.146 172.68L290.358 173.141C289.029 173.768 282.498 173.11 279.902 173.666L280.347 172.77C280.806 172.932 280.546 172.9 281.131 172.775C282.515 171.457 282.597 169.733 282.961 167.875C283.088 167.222 282.682 166.996 282.276 166.624L282.299 165.643Z"/><path fill="#D4D4D6" fill-opacity="0.45490196" d="M89.9723 253.93C91.2765 254.192 95.2683 253.466 95.6734 254.814C97.4533 260.743 101.086 273.453 100.896 279.292C99.8306 274.978 98.6603 270.774 97.5946 266.478C96.7975 263.265 96.5918 259.41 95.6216 256.181C94.3114 256.186 94.1445 256.079 92.8779 255.739C91.0625 256.772 92.152 259.224 91.1465 260.669L90.7154 259.411C90.4333 258.647 90.0417 254.903 89.9723 253.93Z"/><path fill="#FCFCFC" fill-opacity="0.54901963" d="M220.9 175.677L220.991 175.279C221.565 174.773 221.985 174.5 222.765 174.449C225.619 174.398 228.871 174.239 231.709 174.367C234.332 174.485 239.648 173.664 241.564 175.174L241.211 175.207C240.296 175.302 237.971 175.807 236.853 176.015C232.231 176.873 225.457 176.855 220.9 175.677Z"/><path fill="#D4D4D6" fill-opacity="0.6156863" d="M178.573 172.07C178.602 172.828 178.636 173.585 178.675 174.343L178.977 174.503C179.314 174.265 179.602 174.067 179.977 173.891L180.119 173.524C180.782 174.294 181.213 175.431 181.645 176.38C180.944 176.284 180.987 176.257 180.369 176.589C177.512 181.253 180.286 205.246 178.648 207.189L178.29 207.259C178.066 199.259 178.415 191.079 178.291 183.061C178.236 179.544 178.235 175.549 178.573 172.07Z"/><path fill="#9DA9B3" fill-opacity="0.93333334" d="M318.991 393.273L320.014 392.114C320.036 393.134 321.542 399.037 321.892 399.691C322.279 401.69 322.655 403.87 323.166 405.827C323.426 406.988 324.38 410.336 324.11 411.215C322.772 411.54 320.612 411.328 319.993 411.518C320.112 411.218 320.065 411.386 320.107 410.941L320.139 410.571C321.111 409.744 321.345 410.293 322.067 409.684C322.34 407.545 319.581 396.156 318.991 393.273Z"/><path fill="#D4D4D6" fill-opacity="0.50196081" d="M145.887 278.047C146.314 279.665 146.606 281.631 146.899 283.309L146.568 283.794L146.415 283.092C145.526 283.496 145.658 283.61 144.874 283.471C144.709 282.815 144.898 283.022 144.446 282.71C143.984 283.247 143.04 286.46 142.751 287.352L142.722 287.156C142.284 289.054 142.11 290.672 141.781 292.574C141.583 293.72 141.001 294.868 140.674 295.93L140.396 295.581C141.287 290.685 142.199 283.603 143.38 278.996C144.188 279.257 144.692 278.754 145.609 278.665L145.887 278.047Z"/><path fill="#B3B7BA" fill-opacity="0.50588238" d="M390.377 124.499L391.204 125.448C392.224 124.901 390.725 124.595 392.249 124.687C394.192 125.844 398.319 131.302 399.101 133.273C398.486 132.676 397.388 131.449 396.688 131.203L395.949 131.376L395.586 130.989L395.887 130.45C395.507 129.719 394.649 128.804 393.869 128.5C393.824 129.887 395.502 131.894 395.275 134.453L394.963 133.369L394.743 133.441C394.701 134.393 394.849 134.309 394.404 134.993C393.458 131.619 391.82 127.745 390.377 124.499Z"/><path fill="#B3B7BA" fill-opacity="0.6156863" d="M317.703 201.092C316.974 200.899 316.506 200.756 316.057 200.143C314.929 198.606 313.586 197.79 312.203 196.6L312.279 196.041C319.291 198.851 321.527 199.41 328.922 201.088C327.726 201.706 320.352 200.553 318.67 200.31C318.552 199.697 318.561 199.87 318.582 199.288C317.878 198.998 318.244 199.082 317.441 199.193C317.348 199.932 317.339 200.447 317.703 201.092Z"/><path fill="#D4D4D6" fill-opacity="0.71764708" d="M207.324 204.055C208.433 203.777 208.844 204.187 209.95 204.797C211.68 206.821 217.987 210.445 220.422 212.23C220.325 212.973 220.475 212.627 219.784 213.211C215.24 210.708 210.735 208.021 207.324 204.055Z"/><path fill="#D4D4D6" fill-opacity="0.39215687" d="M282.347 132.486C283.684 135.055 285.979 133.829 287.135 137.17C287.597 137.139 287.434 137.223 287.672 137.051C287.272 139.07 286.723 141.497 286.524 143.51C285.572 141.584 283.051 134.643 282.347 132.486Z"/><path fill="#D4D4D6" fill-opacity="0.57647061" d="M136.584 317.616C137.045 319.489 134.663 337.737 133.965 339.053C133.99 337.693 134.056 336.653 134.174 335.309C133.61 335.755 133.089 340.445 132.707 341.777L132.499 341.775L132.399 341.59C133.756 333.954 135.005 325.101 136.584 317.616Z"/><path fill="#9DA9B3" fill-opacity="0.97254902" d="M317.384 386.137C316.509 381.603 315.512 377.842 315.033 373.178C317.414 378.247 317.322 377.981 318.442 383.691C317.659 384.706 317.433 384.877 317.384 386.137Z"/><path fill="#D4D4D6" fill-opacity="0.44705883" d="M284.186 165.641L284.288 164.869C285.524 164.319 285.667 165.658 287.919 165.236C288.524 167.929 289.242 170.08 290.146 172.68C289.994 172.789 289.681 172.914 289.497 172.998C287.989 172.441 288.229 169.276 287.514 168.051C287.242 167.584 284.807 166.039 284.186 165.641Z"/><path fill="#D4D4D6" fill-opacity="0.90588236" d="M310.279 195.227C311.14 195.479 311.518 195.537 312.279 196.041L312.203 196.6C313.586 197.79 314.929 198.606 316.057 200.143C316.506 200.756 316.974 200.899 317.703 201.092L317.515 201.847C318.006 202.229 317.997 202.222 318.575 202.455L318.452 202.84L316.924 202.35L316.191 201.818C313.126 199.613 312.206 198.256 310.279 195.227Z"/><path fill="#D4D4D6" fill-opacity="0.40784314" d="M227.931 245.966C228.243 245.885 228.817 245.588 228.86 245.576C230.922 245.024 236.311 244.24 237.855 245.925C238.188 246.698 237.947 247.408 237.804 248.273C237.727 247.176 237.814 246.809 237.162 246.005C236.15 245.743 231.248 245.908 229.906 245.926C227.77 247.736 228.828 249.612 227.929 250.151L227.612 249.666L227.511 251.071C227.384 250.91 227.258 250.749 227.131 250.588C227.249 249.392 227.66 247.139 227.931 245.966Z"/><path fill="#B3B7BA" fill-opacity="0.98039216" d="M318.442 383.691C318.994 385.79 319.801 389.942 320.014 392.114L318.991 393.273C318.425 390.946 317.91 388.483 317.384 386.137C317.433 384.877 317.659 384.706 318.442 383.691Z"/><path fill="#D4D4D6" fill-opacity="0.42352942" d="M326.017 210.887C326.445 209.994 326.125 210.286 326.885 209.868C328.346 211.078 328.024 211.275 329.835 211.83C331.124 212.226 333.434 212.769 334.264 213.757L334.053 214.094C333.223 214.191 332.99 214.182 332.18 214.157C330.153 212.975 328.235 212.988 326.017 210.887Z"/><path fill="#D4D4D6" fill-opacity="0.68235296" d="M236.63 253.54L236.339 253.59C234.396 252.532 235.545 247.039 237.041 246.81C237.642 247.747 237.437 247.692 237.484 249L237.493 249.45C237.111 250.962 236.85 251.991 236.63 253.54Z"/><path fill="#D4D4D6" fill-opacity="0.5411765" d="M102.174 285.434C102.6 286.39 102.49 286.634 103.208 286.978L103.437 286.807C103.108 289.904 102.117 294.321 101.489 297.472C100.94 295.972 101.085 295.348 101.365 293.794C101.887 290.896 102.191 288.387 102.174 285.434Z"/><path fill="#D4D4D6" fill-opacity="0.4627451" d="M206.468 202.389C208.315 202.87 213.271 205.14 215.163 206.043L214.992 206.396C213.111 206.649 211.716 205.655 209.95 204.797C208.844 204.187 208.433 203.777 207.324 204.055C206.884 203.664 206.716 202.996 206.468 202.389Z"/><path fill="#D4D4D6" fill-opacity="0.21176471" d="M316.924 202.35L318.452 202.84C319.663 203.649 320.912 204.094 322.259 204.655L322.233 205.247C321.079 206.209 320.875 205.235 320.086 206.092L320.056 206.507C317.773 205.383 318.698 203.943 316.924 202.35Z"/><path fill="#B3B7BA" fill-opacity="0.96470588" d="M211.334 373.211C212.816 374.547 213.15 377.477 212.459 379.295C211.811 379.652 211.828 379.52 210.986 379.51C211.634 379.312 211.689 379.374 212.08 378.849C211.406 377.571 211.924 378.923 210.915 377.809C210.983 376.211 210.992 374.776 211.334 373.211Z"/><path fill="#D4D4D6" fill-opacity="0.69803923" d="M164.988 342.85C164.958 342.27 164.789 341.033 165.027 340.641L165.578 341.849L165.939 341.779C165.906 340.907 165.749 340.669 166.094 340L166.34 339.916C166.455 339.984 166.57 340.051 166.685 340.119L167.263 340.926L167.214 341.34C168.215 341.648 169.178 341.5 169.956 342.034C169.286 342.725 166.437 342.549 164.988 342.85Z"/><path fill="#D4D4D6" fill-opacity="0.68235296" d="M85.2999 349.797C85.3169 348.782 85.1772 347.567 85.6332 346.752C86.577 347.129 87.3387 350.072 87.5991 351.121C86.5999 351.659 86.149 351.074 85.3313 350.43L85.2999 349.797Z"/><path fill="#D4D4D6" fill-opacity="0.42745098" d="M282.276 166.624C282.682 166.996 283.088 167.222 282.961 167.875C282.597 169.733 282.515 171.457 281.131 172.775C280.546 172.9 280.806 172.932 280.347 172.77C281.053 171.078 281.752 168.434 282.276 166.624Z"/><path fill="#FCFCFC" fill-opacity="0.098039217" d="M178.421 169.94L178.636 169.698C179.387 170.74 179.459 172.248 180.119 173.524L179.977 173.891C179.602 174.067 179.314 174.265 178.977 174.503L178.675 174.343C178.636 173.585 178.602 172.828 178.573 172.07L178.421 169.94Z"/><path fill="#D4D4D6" fill-opacity="0.87843138" d="M76.7553 341.434L77.3732 340.627C78.2484 340.793 78.1945 340.759 78.8737 341.33C79.1759 342.129 79.1519 341.732 78.9493 342.561C78.2633 342.947 78.3302 342.852 77.5113 342.982L76.7553 341.434Z"/><path fill="#D4D4D6" fill-opacity="0.6901961" d="M234.101 217.795C233.7 216.904 233.57 216.994 233.674 216.178C234.355 216.055 234.017 216.046 234.688 216.344L235.571 217.189L235.492 217.558C234.997 217.65 234.6 217.724 234.101 217.795Z"/><path fill="#D4D4D6" fill-opacity="0.57254905" d="M222.729 208.101C223.378 208.219 224.346 208.368 224.954 208.531L224.775 208.993C223.637 209.319 222.986 209.324 221.943 208.763L222.011 208.372L222.729 208.101Z"/><path fill="#D4D4D6" fill-opacity="0.68627453" d="M223.265 214.762C223.567 214.028 223.327 214.322 224.068 213.902C225.078 213.963 224.678 213.776 225.376 214.31L225.299 214.788L224.42 215.233L223.265 214.762Z"/></svg>