<?xml version="1.0" encoding="utf-8" ?><svg xmlns="http://www.w3.org/2000/svg" xmlns:xlink="http://www.w3.org/1999/xlink" width="500" height="500" viewBox="0 0 500 500"><path fill="#FEFEFE" d="M245.18 262.409C266.286 240.096 282.613 242.477 310.376 242.499L349.821 242.516L378.39 242.53C387.733 242.536 398.7 241.977 407.732 244.287C451.511 255.485 468.399 309.708 437.45 343.15C425.191 356.396 409.811 362.609 391.879 362.893C381.085 363.057 374.36 361.46 364.257 358.236L363.882 358.312C358.837 359.366 354.771 361.411 349.295 362.093C338.555 363.432 327.009 363.113 316.132 363.048C304.827 362.98 289.941 363.693 279.104 361.572C272.202 360.219 265.611 357.597 259.666 353.839C247.488 346.021 238.114 334.648 233.88 320.731C231.123 310.302 231.475 297.797 232.896 287.115C233.277 284.252 235.025 281.041 235.424 278.307C236.049 277.278 237.309 274.497 238.011 273.159C240.273 268.847 242.145 266.106 245.18 262.409ZM344.711 344.449C337.107 336.398 332.949 329.725 329.826 318.888C327.156 309.934 328.219 300.554 326.64 291.48C324.648 280.04 315.466 269.579 305.235 264.532C300.807 262.348 292.398 260.669 287.504 261.106C275.039 262.108 266.857 265.287 258.804 274.7C243.976 292.034 246.997 320.932 264.839 335.018C278.477 345.786 290.803 344.519 306.625 344.466L332.501 344.467C336.284 344.466 341.028 344.31 344.711 344.449ZM332.064 262.528C336.257 267.862 338.648 271.168 341.552 277.538C351.733 303.894 337.4 314.605 364.009 337.116C365.086 336.106 366.577 334.916 367.707 333.917C376.959 325.745 381.309 316.477 381.865 304.194C382.202 296.75 382.098 289.281 382.087 281.8C381.939 277.217 382.369 272.424 381.734 267.885C381.143 263.661 377.932 261.61 373.993 261.26C369.086 260.824 364.085 261.005 359.181 261.01L330.673 260.984C331.272 261.821 331.292 261.857 332.064 262.528ZM383.141 344.444C394.457 344.339 401.793 345.226 412.725 339.555C442.749 323.338 441.929 280.258 411.651 265.077C409.711 264.105 407.432 263.366 405.348 262.779C403.377 262.228 401.38 261.774 399.365 261.417C400.919 270.953 400.408 276.704 400.492 286.158C400.658 304.994 401.175 321.246 389.388 337.344C387.444 339.999 385.673 342.276 383.141 344.444Z"/><path fill="#FEFEFE" d="M79.5584 236.742C80.2578 237.463 81.0896 243.587 81.3275 245.042C83.6453 245.005 85.9635 244.993 88.2816 245.005C88.7226 248.076 89.2991 250.952 89.8284 253.996L89.9301 254.003L96.4053 254.041C96.5838 255.16 96.7708 256.287 97.0038 257.395C99.0765 267.259 100.706 277.216 102.717 287.088C102.999 285.889 103.676 282.67 104.064 281.661C104.324 281.002 105.406 274.384 105.594 273.278L109.713 249.464C110.163 246.881 111.336 239.158 112.19 237.221C114.1 236.486 126.497 236.917 129.325 236.86C141.673 236.607 155.158 237.399 167.452 236.769C167.791 239.245 168.326 241.882 168.696 244.418C169.846 245.412 173.91 245.044 175.854 245.106C176.324 247.357 177.376 251.793 177.566 253.951L177.668 254.045C179.867 254.024 182.133 253.973 184.326 254.01C186.778 265.18 187.923 276.442 190.488 287.277L190.763 287.452L190.959 287.326C194.024 270.541 197 253.74 199.885 236.923C209.359 236.465 219.999 237.295 229.904 236.811C229.388 239.41 229.036 242.1 228.343 244.652C230.999 244.833 235.548 244.913 238.219 244.791C237.963 247.821 237.496 250.83 236.823 253.795C238.076 254.464 244.746 254.13 246.527 254.064C246.129 256.507 245.757 259.281 244.592 261.484C242.481 264.642 235.454 274.946 235.424 278.307C235.025 281.041 233.277 284.252 232.896 287.115C231.475 297.797 231.123 310.302 233.88 320.731C233.391 321.665 233.293 323.045 233.213 324.113C232.508 333.5 229.824 342.558 228.226 351.731L191.024 351.64C185.458 351.652 178.684 351.374 173.25 351.981C172.413 349.015 172.28 346.397 171.911 343.348L171.546 343.09C169.122 342.989 166.694 343.027 164.274 343.204C164.255 341.012 164.023 337.55 163.61 335.438C161.687 335.438 159.53 335.495 157.643 335.273L156.25 335.211C154.964 333.96 151.974 313.048 151.31 309.826C150.499 307.396 150.108 303.52 149.586 300.882C148.416 306.34 147.729 311.887 146.771 317.383C144.995 327.583 142.974 337.74 141.356 347.968C141.15 349.273 140.969 350.588 140.713 351.885L103.052 351.768C99.1367 351.764 88.367 351.51 85.2003 351.941C84.6576 349.827 84.1427 344.353 83.4351 343.269C81.2561 343.263 79.2825 343.276 77.1043 343.081C76.0406 340.291 75.7718 338.19 75.3136 335.26C73.6275 335.104 69.2268 335.585 68.0575 335.06C65.8452 324.993 63.9044 312.825 61.9515 302.527L49.5445 236.845C59.0022 237.184 70.0971 237.014 79.5584 236.742Z"/><path fill="#5C6C7B" d="M228.343 244.652C230.999 244.833 235.548 244.913 238.219 244.791C237.963 247.821 237.496 250.83 236.823 253.795C238.076 254.464 244.746 254.13 246.527 254.064C246.129 256.507 245.757 259.281 244.592 261.484C242.481 264.642 235.454 274.946 235.424 278.307C235.025 281.041 233.277 284.252 232.896 287.115C231.475 297.797 231.123 310.302 233.88 320.731C233.391 321.665 233.293 323.045 233.213 324.113C232.508 333.5 229.824 342.558 228.226 351.731L191.024 351.64C185.458 351.652 178.684 351.374 173.25 351.981C172.413 349.015 172.28 346.397 171.911 343.348L171.546 343.09C169.122 342.989 166.694 343.027 164.274 343.204C164.255 341.012 164.023 337.55 163.61 335.438C161.687 335.438 159.53 335.495 157.643 335.273C159.902 335.166 161.686 335.151 163.948 335.21C165.601 334.892 175.871 335.017 178.127 335.019L211.145 335.058C214.474 316.095 218.473 297.16 221.901 278.206C223.38 270.023 224.942 261.709 226.603 253.564C227.147 250.587 227.727 247.616 228.343 244.652Z"/><path fill="#2F495E" d="M236.629 254.275L236.823 253.795C238.076 254.464 244.746 254.13 246.527 254.064C246.129 256.507 245.757 259.281 244.592 261.484C242.481 264.642 235.454 274.946 235.424 278.307C235.025 281.041 233.277 284.252 232.896 287.115C231.475 297.797 231.123 310.302 233.88 320.731C233.391 321.665 233.293 323.045 233.213 324.113C232.508 333.5 229.824 342.558 228.226 351.731L191.024 351.64C185.458 351.652 178.684 351.374 173.25 351.981C172.413 349.015 172.28 346.397 171.911 343.348C173.747 342.804 184.948 342.996 187.586 342.996L219.891 343.006C221.021 335.012 223.166 325.733 224.604 317.667C228.355 296.624 233.036 275.318 236.629 254.275Z"/><path fill="#2F495E" d="M228.343 244.652C230.999 244.833 235.548 244.913 238.219 244.791C237.963 247.821 237.496 250.83 236.823 253.795L236.629 254.275C235.678 253.838 228.662 254.02 226.914 253.923L226.603 253.564C227.147 250.587 227.727 247.616 228.343 244.652Z"/><path fill="#2F495E" d="M157.643 335.273C159.902 335.166 161.686 335.151 163.948 335.21C166.092 335.386 168.275 335.342 170.429 335.337C170.713 337.948 171.253 340.547 171.546 343.09C169.122 342.989 166.694 343.027 164.274 343.204C164.255 341.012 164.023 337.55 163.61 335.438C161.687 335.438 159.53 335.495 157.643 335.273Z"/><path fill="#5C6C7B" d="M135.836 264.282L143.564 264.28C144.019 267.569 144.778 270.874 145.239 274.181L149.391 297.825C149.799 300.16 151.283 307.787 151.31 309.826C150.499 307.396 150.108 303.52 149.586 300.882C148.416 306.34 147.729 311.887 146.771 317.383C144.995 327.583 142.974 337.74 141.356 347.968C141.15 349.273 140.969 350.588 140.713 351.885L103.052 351.768C99.1367 351.764 88.367 351.51 85.2003 351.941C84.6576 349.827 84.1427 344.353 83.4351 343.269C81.2561 343.263 79.2825 343.276 77.1043 343.081C76.0406 340.291 75.7718 338.19 75.3136 335.26C73.6275 335.104 69.2268 335.585 68.0575 335.06C71.1662 334.739 81.6323 335.031 85.3717 335.032L123.448 335.046C127.851 312.047 131.882 287.415 135.836 264.282Z"/><path fill="#2F495E" d="M132.18 343.01C132.206 342.796 132.232 342.581 132.258 342.366C134.769 327.811 137.402 313.242 139.943 298.696L142.495 283.711C142.95 281.035 143.38 278.214 144.046 275.578C144.265 274.708 144.476 274.759 145.239 274.181L149.391 297.825C149.799 300.16 151.283 307.787 151.31 309.826C150.499 307.396 150.108 303.52 149.586 300.882C148.416 306.34 147.729 311.887 146.771 317.383C144.995 327.583 142.974 337.74 141.356 347.968C141.15 349.273 140.969 350.588 140.713 351.885L103.052 351.768C99.1367 351.764 88.367 351.51 85.2003 351.941C84.6576 349.827 84.1427 344.353 83.4351 343.269L83.6815 343.13C89.2769 342.863 95.85 343.008 101.526 343.007L132.18 343.01Z"/><path fill="#2F495E" d="M75.3136 335.26C77.724 335.331 80.1355 335.358 82.5469 335.34C82.8424 337.788 83.5563 340.822 83.6815 343.13L83.4351 343.269C81.2561 343.263 79.2825 343.276 77.1043 343.081C76.0406 340.291 75.7718 338.19 75.3136 335.26Z"/><path fill="#5C6C7B" d="M170.38 254.358C171.491 253.785 176.069 253.955 177.566 253.951L177.668 254.045C179.867 254.024 182.133 253.973 184.326 254.01C186.778 265.18 187.923 276.442 190.488 287.277L190.763 287.452L190.959 287.326C190.312 292.847 188.599 300.782 187.596 306.484L187.434 307.333C186.602 307.969 181.105 307.732 179.588 307.733C179.509 306.702 179.293 305.584 179.122 304.554C176.331 287.81 173.088 271.112 170.38 254.358Z"/><path fill="#2F495E" d="M177.668 254.045C179.867 254.024 182.133 253.973 184.326 254.01C186.778 265.18 187.923 276.442 190.488 287.277L190.763 287.452L190.959 287.326C190.312 292.847 188.599 300.782 187.596 306.484C186.994 305.885 186.59 305.25 186.453 304.402C183.755 287.752 179.911 270.725 177.668 254.045Z"/><path fill="#5C6C7B" d="M89.8284 253.996L89.9301 254.003L96.4053 254.041C96.5838 255.16 96.7708 256.287 97.0038 257.395C99.0765 267.259 100.706 277.216 102.717 287.088C102.999 285.889 103.676 282.67 104.064 281.661C103.993 283.195 103.707 284.7 103.459 286.213C102.347 293.003 100.889 299.747 100.037 306.577C99.9629 307.298 100.104 307.002 99.6431 307.515C97.8805 307.882 93.9053 307.728 91.904 307.709C91.1365 301.307 89.4233 293.07 88.2804 286.617C86.3645 275.798 84.4864 264.757 82.4197 253.978L89.8284 253.996Z"/><path fill="#2F495E" d="M89.9301 254.003L96.4053 254.041C96.5838 255.16 96.7708 256.287 97.0038 257.395C99.0765 267.259 100.706 277.216 102.717 287.088C102.999 285.889 103.676 282.67 104.064 281.661C103.993 283.195 103.707 284.7 103.459 286.213C102.347 293.003 100.889 299.747 100.037 306.577C98.1373 304.397 97.6604 298.709 97.1295 295.72L94.3036 279.846L91.5099 264.132C90.9834 261.166 90.1042 256.904 89.9301 254.003Z"/><path fill="#2F495E" d="M79.5584 236.742C80.2578 237.463 81.0896 243.587 81.3275 245.042C83.6453 245.005 85.9635 244.993 88.2816 245.005C88.7226 248.076 89.2991 250.952 89.8284 253.996L82.4197 253.978C81.6336 248.36 80.1917 242.332 79.5584 236.742Z"/><path fill="#2F495E" d="M168.696 244.418C169.846 245.412 173.91 245.044 175.854 245.106C176.324 247.357 177.376 251.793 177.566 253.951C176.069 253.955 171.491 253.785 170.38 254.358C169.75 251.486 169.051 247.322 168.696 244.418Z"/><path fill="#0092FE" d="M288.123 134.858C288.95 128.291 296.735 116.997 301.898 112.789C315.12 102.014 332.385 98.8055 348.986 100.327C364.631 101.76 377.381 107.896 387.537 119.757C390.795 122.224 394.492 126.472 397.285 129.585C407.881 139.157 412.333 150.284 413.495 164.338C416.089 195.7 394.423 217.741 363.519 218.772C357.017 218.988 350.176 219.054 343.743 217.695C340.964 217.126 338.052 215.957 335.519 215.424C334.875 215.071 331.05 213.649 329.88 213.121C325.788 211.273 323.796 209.722 320.291 207.068C317.765 205.022 314.643 201.742 312.515 199.278C311.449 198.704 307.641 194.379 306.774 193.3C304.615 191.577 302.207 189.582 300.173 187.736C298.633 186.008 297.141 184.134 295.67 182.339C293.571 182.506 290.495 182.621 288.414 182.463L288.098 182.081C289.529 179.597 290.052 176.86 290.737 174.089L290.443 173.281C289.348 170.593 288.474 167.592 287.674 164.806C286.303 156.905 286.125 153.46 286.396 145.455C286.5 142.548 287.509 137.789 288.123 134.858ZM364.707 144.717C363.34 144.322 361.829 144.571 360.477 144.506C344.07 143.714 333.92 151.734 334.604 168.792C334.663 170.284 334.867 172.464 334.868 174.033C357.353 176.471 366.87 167.027 364.707 144.717Z"/><path fill="#2F495E" d="M387.537 119.757C390.795 122.224 394.492 126.472 397.285 129.585C407.881 139.157 412.333 150.284 413.495 164.338C416.089 195.7 394.423 217.741 363.519 218.772C357.017 218.988 350.176 219.054 343.743 217.695C340.964 217.126 338.052 215.957 335.519 215.424C334.875 215.071 331.05 213.649 329.88 213.121C325.788 211.273 323.796 209.722 320.291 207.068C317.765 205.022 314.643 201.742 312.515 199.278C311.449 198.704 307.641 194.379 306.774 193.3C311.668 195.608 316.179 197.805 321.421 199.317C337.256 203.885 357.766 202.745 372.335 194.902C382.964 189.243 390.858 179.532 394.227 167.971C397.717 156.231 397.302 142.208 392.973 130.709C391.541 126.905 389.485 123.326 387.537 119.757Z"/><path fill="#5C6C7B" d="M387.537 119.757C390.795 122.224 394.492 126.472 397.285 129.585C399.338 133.89 401.366 137.957 402.716 142.596C405.929 153.638 405.77 167.554 401.948 178.341C397.997 189.508 389.772 198.647 379.081 203.747C363.442 211.186 342.584 211.906 326.331 206.07C323.063 204.924 319.895 203.509 316.861 201.838C315.707 201.203 313.465 199.745 312.515 199.278C311.449 198.704 307.641 194.379 306.774 193.3C311.668 195.608 316.179 197.805 321.421 199.317C337.256 203.885 357.766 202.745 372.335 194.902C382.964 189.243 390.858 179.532 394.227 167.971C397.717 156.231 397.302 142.208 392.973 130.709C391.541 126.905 389.485 123.326 387.537 119.757Z"/><path fill="#042845" d="M290.737 174.089C292.242 176.824 293.836 179.823 295.67 182.339C293.571 182.506 290.495 182.621 288.414 182.463L288.098 182.081C289.529 179.597 290.052 176.86 290.737 174.089Z"/><path fill="#5C6C7B" d="M328.169 171.96C314.864 166.247 313.852 141.253 324.299 132.655C334.258 124.458 355.214 125.066 362.121 137.175C363.499 139.356 364.664 142.101 364.707 144.717C363.34 144.322 361.829 144.571 360.477 144.506C344.07 143.714 333.92 151.734 334.604 168.792C334.663 170.284 334.867 172.464 334.868 174.033C332.58 173.974 330.091 173.194 328.169 171.96Z"/><path fill="#2F495E" d="M328.169 171.96C327.865 170.61 327.145 168.778 326.823 167.387C322 146.545 333.259 132.847 354.836 135.482C357.26 135.778 359.691 136.909 362.121 137.175C363.499 139.356 364.664 142.101 364.707 144.717C363.34 144.322 361.829 144.571 360.477 144.506C344.07 143.714 333.92 151.734 334.604 168.792C334.663 170.284 334.867 172.464 334.868 174.033C332.58 173.974 330.091 173.194 328.169 171.96Z"/><path fill="#FEFEFE" d="M182.666 121.724C184.503 119.052 186.139 116.853 188.449 114.536C198.579 104.37 212.414 100.192 226.473 100.12C241.225 100.044 253.374 103.214 264.727 113.128C266.498 114.674 267.66 116.159 269.289 117.786C271.508 119.625 279.069 126.941 280.547 129.295C282.103 130.798 283.693 132.294 285.244 133.799C286 134.532 286.342 135.276 287.258 136.011C287.71 135.582 287.788 135.391 288.123 134.858C287.509 137.789 286.5 142.548 286.396 145.455C286.125 153.46 286.303 156.905 287.674 164.806C288.474 167.592 289.348 170.593 290.443 173.281L290.737 174.089C290.052 176.86 289.529 179.597 288.098 182.081L288.414 182.463C290.495 182.621 293.571 182.506 295.67 182.339C297.141 184.134 298.633 186.008 300.173 187.736C299.436 187.234 299.188 186.849 298.498 186.901C297.487 189.064 297.461 190.766 296.216 193.115C290.942 203.068 280.699 211.515 270.117 215.22C255.097 220.479 233.639 220.024 219.294 213.153C213.654 210.409 208.694 206.447 204.771 201.552C201.93 198.834 199.128 195.835 196.334 193.039C192.515 190.193 190.371 188.405 187.335 184.795C183.209 179.48 181.509 176.612 179.098 170.521C174.438 156.74 174.24 145.697 178.048 131.808C179.465 127.877 181.029 125.361 182.666 121.724Z"/><path fill="#5C6C7B" d="M269.289 117.786C271.508 119.625 279.069 126.941 280.547 129.295C282.103 130.798 283.693 132.294 285.244 133.799C286 134.532 286.342 135.276 287.258 136.011C287.71 135.582 287.788 135.391 288.123 134.858C287.509 137.789 286.5 142.548 286.396 145.455C286.125 153.46 286.303 156.905 287.674 164.806C286.518 166.215 284.495 165.064 282.694 165.628L282.424 165.959L282.098 165.597C279.121 165.246 270.41 165.486 266.836 165.474C263.305 165.462 254.468 165.235 251.291 165.573C249.412 170.027 246.77 172.908 242.209 174.767C235.324 177.574 222.934 177.165 216.205 174.232C215.459 173.901 214.719 173.557 213.987 173.198C212.453 172.411 211.034 171.419 209.767 170.25C206.011 166.751 204.847 162.51 204.659 157.536L278.961 157.554C279.146 140.863 278.656 132.116 269.289 117.786Z"/><path fill="#2F495E" d="M212.947 165.494C225.41 165.59 238.947 165.181 251.291 165.573C249.412 170.027 246.77 172.908 242.209 174.767C235.324 177.574 222.934 177.165 216.205 174.232C215.459 173.901 214.719 173.557 213.987 173.198C214.079 172.129 213.159 166.994 212.947 165.494Z"/><path fill="#2F495E" d="M280.547 129.295C282.103 130.798 283.693 132.294 285.244 133.799C286 134.532 286.342 135.276 287.258 136.011C287.71 135.582 287.788 135.391 288.123 134.858C287.509 137.789 286.5 142.548 286.396 145.455C286.021 141.886 282.088 132.877 280.547 129.295Z"/><path fill="#2F495E" d="M288.098 182.081L288.414 182.463C290.495 182.621 293.571 182.506 295.67 182.339C297.141 184.134 298.633 186.008 300.173 187.736C299.436 187.234 299.188 186.849 298.498 186.901C297.487 189.064 297.461 190.766 296.216 193.115C290.942 203.068 280.699 211.515 270.117 215.22C255.097 220.479 233.639 220.024 219.294 213.153C213.654 210.409 208.694 206.447 204.771 201.552C206.31 201.937 207.925 202.779 209.353 203.473C228.885 212.959 255.237 212.338 273.278 199.802C278.404 196.241 286.009 188.205 288.098 182.081Z"/><path fill="#5C6C7B" d="M287.674 164.806C288.474 167.592 289.348 170.593 290.443 173.281L290.737 174.089C290.052 176.86 289.529 179.597 288.098 182.081C286.009 188.205 278.404 196.241 273.278 199.802C255.237 212.338 228.885 212.959 209.353 203.473C207.925 202.779 206.31 201.937 204.771 201.552C201.93 198.834 199.128 195.835 196.334 193.039C197.911 194.049 199.553 194.954 201.248 195.751C216.191 202.941 236.244 204.076 251.874 198.448C265.259 193.629 274.221 185.753 280.3 172.987L280.39 172.754L280.535 172.365C281.407 170.081 281.823 168.324 282.424 165.959L282.694 165.628C284.495 165.064 286.518 166.215 287.674 164.806Z"/><path fill="#2F495E" d="M287.674 164.806C288.474 167.592 289.348 170.593 290.443 173.281C288.047 173.288 282.011 173.984 280.3 172.987L280.39 172.754L280.535 172.365C281.407 170.081 281.823 168.324 282.424 165.959L282.694 165.628C284.495 165.064 286.518 166.215 287.674 164.806Z"/><path fill="#5C6C7B" d="M204.426 139.921C205.252 134.056 207.324 130.008 213.169 127.697C223.179 123.739 243.654 123.365 248.714 135.141C249.321 136.992 249.455 137.846 249.749 139.794C248.192 140.145 237.886 140.025 235.755 140.012C225.341 139.951 214.83 140.078 204.426 139.921Z"/><path fill="#2F495E" d="M249.749 139.794C244.656 139.353 218.956 140.476 216.473 139.51C216.559 138.702 217.103 138.101 217.778 137.683C226.873 132.05 238.51 132.277 248.498 135.111C248.57 135.121 248.642 135.131 248.714 135.141C249.321 136.992 249.455 137.846 249.749 139.794Z"/><path fill="#FEFEFE" d="M99.6631 114.454C100.26 113.668 100.874 112.896 101.505 112.138C114.318 96.6634 140.671 96.5481 155.704 108.928C158.133 110.18 169.674 122.559 171.812 125.302C174.372 127.735 175.918 128.896 177.317 132.176C178.896 128.975 180.326 124.4 182.666 121.724C181.029 125.361 179.465 127.877 178.048 131.808C174.24 145.697 174.438 156.74 179.098 170.521C181.509 176.612 183.209 179.48 187.335 184.795L186.926 185.178L187.015 204.686C187.027 208.543 186.943 213.365 187.344 217.139C177.74 217.114 165.23 216.745 155.798 217.155C155.793 214.9 155.932 210.168 155.745 208.14C153.684 207.951 149.176 208.19 147.131 208.457C147.041 205.928 147.029 202.797 147.142 200.3C144.577 200.121 140.363 200.53 138.245 200.202C138.065 188.508 138.352 176.627 138.225 164.918C138.162 159.018 138.383 152.986 137.989 147.108C137.902 146.311 137.881 145.115 137.458 144.495C133.869 143.791 127.468 144.858 124.029 146.208C108.617 152.254 107.997 169.337 107.995 183.147L107.98 198.37C107.975 202.61 107.725 213.245 108.212 217.034C97.7323 217.081 87.2524 217.056 76.773 216.958C76.5337 214.876 76.8586 208.935 76.4571 208.034C73.6994 208.043 70.6492 207.931 67.954 208.353L68.0677 200.29C65.3753 200.119 61.5984 200.503 59.2008 200.201C59.1188 196.089 59.1464 191.783 59.1962 187.664C59.5417 159.09 58.8051 130.365 59.2108 101.808C69.7141 101.861 80.2176 101.835 90.7205 101.729C91.2025 102.572 90.9389 108.926 90.9159 110.261C93.6797 110.131 96.2807 110.018 99.0506 110.007C99.0134 111.208 98.8684 113.025 99.1162 114.142L99.6631 114.454Z"/><path fill="#5C6C7B" d="M155.704 108.928C158.133 110.18 169.674 122.559 171.812 125.302C174.372 127.735 175.918 128.896 177.317 132.176C178.896 128.975 180.326 124.4 182.666 121.724C181.029 125.361 179.465 127.877 178.048 131.808C174.24 145.697 174.438 156.74 179.098 170.521C181.509 176.612 183.209 179.48 187.335 184.795L186.926 185.178L187.015 204.686C187.027 208.543 186.943 213.365 187.344 217.139C177.74 217.114 165.23 216.745 155.798 217.155C155.793 214.9 155.932 210.168 155.745 208.14C153.684 207.951 149.176 208.19 147.131 208.457C147.041 205.928 147.029 202.797 147.142 200.3C144.577 200.121 140.363 200.53 138.245 200.202C139.775 199.884 146.912 199.995 148.85 200L169.635 200.02L169.663 164.126C169.67 154.21 170.061 143.721 168.396 133.965C167.562 129.101 166.057 124.377 163.923 119.928C162.449 116.805 160.89 114.474 158.527 111.967C157.843 111.241 156.469 109.917 155.908 109.195L155.704 108.928Z"/><path fill="#2F495E" d="M179.098 170.521C181.509 176.612 183.209 179.48 187.335 184.795L186.926 185.178L187.015 204.686C187.027 208.543 186.943 213.365 187.344 217.139C177.74 217.114 165.23 216.745 155.798 217.155C155.793 214.9 155.932 210.168 155.745 208.14C161.876 207.702 171.852 207.993 178.261 207.985L178.247 183.167C178.244 179.526 178.169 175.524 178.367 171.871C178.396 171.329 178.759 170.922 179.098 170.521Z"/><path fill="#2F495E" d="M147.142 200.3L155.705 200.34C155.741 202.349 155.619 206.356 155.745 208.14C153.684 207.951 149.176 208.19 147.131 208.457C147.041 205.928 147.029 202.797 147.142 200.3Z"/><path fill="#2F495E" d="M177.317 132.176C178.896 128.975 180.326 124.4 182.666 121.724C181.029 125.361 179.465 127.877 178.048 131.808C177.172 132.931 177.299 134.906 176.143 135.207C174.812 133.768 172.454 127.376 171.812 125.302C174.372 127.735 175.918 128.896 177.317 132.176Z"/><path fill="#2F495E" d="M113.557 137.906C118.536 135.57 125.133 134.941 130.585 135.328C132.331 135.451 134.096 136.192 135.67 135.824C137.105 139.025 138.222 143.612 137.989 147.108C137.902 146.311 137.881 145.115 137.458 144.495C133.869 143.791 127.468 144.858 124.029 146.208C108.617 152.254 107.997 169.337 107.995 183.147L107.98 198.37C107.975 202.61 107.725 213.245 108.212 217.034C97.7323 217.081 87.2524 217.056 76.773 216.958C76.5337 214.876 76.8586 208.935 76.4571 208.034L76.6184 208C83.3827 208.28 92.2494 207.997 99.1817 207.986C99.0205 205.119 99.0407 200.718 99.165 197.87C99.8417 182.367 96.9228 162.916 103.178 148.537L103.554 148.216C105.572 144.055 108.448 140.853 112.476 138.59C112.627 138.408 113.309 138.05 113.557 137.906Z"/><path fill="#042845" d="M112.476 138.59C112.458 139.341 110.055 146.497 109.621 148.233C107.702 148.229 105.444 148.285 103.554 148.216C105.572 144.055 108.448 140.853 112.476 138.59Z"/><path fill="#5C6C7B" d="M107.697 128.838C108.119 132.06 101.183 147.104 102.767 148.307C102.892 148.402 103.041 148.46 103.178 148.537C96.9228 162.916 99.8417 182.367 99.165 197.87C99.0407 200.718 99.0205 205.119 99.1817 207.986C92.2494 207.997 83.3827 208.28 76.6184 208L76.4571 208.034C73.6994 208.043 70.6492 207.931 67.954 208.353L68.0677 200.29C65.3753 200.119 61.5984 200.503 59.2008 200.201C60.8897 199.862 67.788 199.993 69.8864 199.999L90.5015 200.018L90.4968 172.51C90.4971 161.615 89.8221 148.477 95.5535 138.78C97.3704 135.629 99.8565 132.972 102.971 131.092C104.129 130.231 106.334 129.33 107.697 128.838Z"/><path fill="#2F495E" d="M68.0677 200.29L76.5231 200.335C76.5664 201.573 76.5051 207.278 76.6184 208L76.4571 208.034C73.6994 208.043 70.6492 207.931 67.954 208.353L68.0677 200.29Z"/><path fill="#2F495E" d="M102.971 131.092C103.32 132.327 101.541 137.736 101.097 139.289C99.687 139.289 96.5423 139.497 95.5535 138.78C97.3704 135.629 99.8565 132.972 102.971 131.092Z"/><path fill="#2F495E" d="M107.697 128.838C110.388 128.102 112.441 127.585 115.232 127.477C116.716 127.574 117.798 127.6 119.284 127.575C118.572 130.592 112.829 136.466 113.557 137.906C113.309 138.05 112.627 138.408 112.476 138.59C108.448 140.853 105.572 144.055 103.554 148.216L103.178 148.537C103.041 148.46 102.892 148.402 102.767 148.307C101.183 147.104 108.119 132.06 107.697 128.838Z"/><path fill="#5C6C7B" d="M115.232 127.477C122.895 126.332 132.058 128.17 135.67 135.824C134.096 136.192 132.331 135.451 130.585 135.328C125.133 134.941 118.536 135.57 113.557 137.906C112.829 136.466 118.572 130.592 119.284 127.575C117.798 127.6 116.716 127.574 115.232 127.477Z"/><path fill="#5C6C7B" d="M89.0717 118.311L89.2918 118.803C91.8021 119.275 94.8052 118.695 96.6598 119.226C94.9213 122.776 92.9484 127.289 92.3936 131.223L84.7511 131.224C86.0101 127.024 87.6509 122.49 89.0717 118.311Z"/><path fill="#2F495E" d="M90.7205 101.729C91.2025 102.572 90.9389 108.926 90.9159 110.261C93.6797 110.131 96.2807 110.018 99.0506 110.007C99.0134 111.208 98.8684 113.025 99.1162 114.142L99.6631 114.454C98.7764 116.022 97.6468 117.696 96.6598 119.226C94.8052 118.695 91.8021 119.275 89.2918 118.803L89.0717 118.311C91.8875 110.588 89.8303 108.094 90.7205 101.729Z"/><path fill="#FEFEFE" d="M250.569 379.436C251.707 374.798 250.799 369.729 256.861 371.257C260.218 373.653 261.298 382.213 261.823 386.241C261.829 387.422 262.13 388.376 262.407 389.525C262.548 387.675 262.705 385.85 262.74 383.994C263.036 382.992 263.219 379.952 263.514 378.435C264.242 371.258 262.91 370.563 270.718 371.243C271.828 372.197 272.048 372.979 273.223 373.943C272.904 377.849 269.666 410.087 268.909 411.54C266.599 412.741 262.291 411.536 260.232 410.104C259.511 409.31 258.884 406.052 258.59 404.821C257.817 402.912 256.297 396.163 255.758 393.89C254.758 399.844 253.274 406.398 251.937 412.302C247.692 412.292 246.952 412.47 243.465 410.113C243.41 410.072 243.348 410.038 243.3 409.989C242.245 408.921 238.96 375.412 238.716 371.153C241.062 371.02 242.786 371.037 245.142 371.114C248.626 372.753 248.497 382.492 248.689 386.187C249.389 383.942 249.918 381.487 250.569 379.436Z"/><path fill="#6D8291" d="M270.718 371.243C271.828 372.197 272.048 372.979 273.223 373.943C272.904 377.849 269.666 410.087 268.909 411.54C266.599 412.741 262.291 411.536 260.232 410.104C262.256 410.442 264.555 410.191 266.585 409.982C267.723 402.895 268.252 394.593 269.235 387.375C269.631 384.468 270.944 373.615 270.718 371.243Z"/><path fill="#6D8291" d="M249.604 409.929C250.555 406.868 251.396 402.705 252.126 399.525C253.005 395.697 254.17 391.087 254.685 387.242C255.848 391.606 258.139 400.488 258.59 404.821C257.817 402.912 256.297 396.163 255.758 393.89C254.758 399.844 253.274 406.398 251.937 412.302C247.692 412.292 246.952 412.47 243.465 410.113C245.673 410.343 247.398 410.131 249.604 409.929Z"/><path fill="#6D8291" d="M245.142 371.114C248.626 372.753 248.497 382.492 248.689 386.187C249.389 383.942 249.918 381.487 250.569 379.436C250.611 381.442 247.969 392.808 247.403 395.408L246.419 382.479C246.188 379.243 245.958 374.163 245.142 371.114Z"/><path fill="#5C6C7B" d="M256.861 371.257C260.218 373.653 261.298 382.213 261.823 386.241C261.829 387.422 262.13 388.376 262.407 389.525C262.548 387.675 262.705 385.85 262.74 383.994C263.036 382.992 263.219 379.952 263.514 378.435C263.771 383.587 262.429 389.746 262.438 395.527C260.897 390.586 258.684 374.24 256.861 371.257Z"/><path fill="#FEFEFE" d="M218.118 409.039C215.897 406.627 215.751 403.884 215.732 400.774C215.69 393.892 215.695 387.006 215.723 380.124C215.729 378.765 215.89 377.831 216.035 376.558C216.73 370.467 222.605 370.907 227.222 370.952C230.754 370.986 232.23 371.528 234.627 373.982C236.838 376.404 237.188 381.334 237.088 384.469C236.851 391.891 238.128 401.768 236.483 408.879C235.51 413.08 221.604 413.237 218.118 409.039ZM228.469 403.409C229.162 401.57 228.872 381.021 228.725 377.83C226.464 377.664 224.922 377.678 222.638 377.778C222.495 379.981 222.673 402.278 223.097 403.15C224.633 404.099 226.729 403.726 228.469 403.409Z"/><path fill="#6D8291" d="M234.627 373.982C236.838 376.404 237.188 381.334 237.088 384.469C236.851 391.891 238.128 401.768 236.483 408.879C235.51 413.08 221.604 413.237 218.118 409.039C221.351 410.916 234.117 410.727 234.685 406.499C235.466 400.683 236.44 378.553 234.627 373.982Z"/><defs><linearGradient id="gradient_0" gradientUnits="userSpaceOnUse" x1="219.56073" y1="391.68896" x2="231.18889" y2="387.81036"><stop offset="0" stop-color="#48677F"/><stop offset="1" stop-color="#6C7D8E"/></linearGradient></defs><path fill="url(#gradient_0)" d="M222.638 377.778C224.922 377.678 226.464 377.664 228.725 377.83C228.872 381.021 229.162 401.57 228.469 403.409C226.729 403.726 224.633 404.099 223.097 403.15C222.673 402.278 222.495 379.981 222.638 377.778ZM226.771 402.718C227.801 402.579 227.657 402.759 228.308 402.186C229.328 398.248 228.37 384.661 228.184 380.002C228.171 379.677 226.435 379.576 226.089 379.559C225.765 379.696 224.997 379.937 224.983 380.17C224.654 385.633 224.741 397.112 224.924 402.12C225.631 402.7 225.714 402.541 226.771 402.718Z"/><path fill="#FEFEFE" d="M165.969 370.996C168.031 370.936 170.06 370.971 172.12 370.996C174.318 374.129 175.852 380.085 177.603 384.051L177.385 382.639C178.699 385.082 178.963 388.1 179.847 390.951C180.277 386.759 179.968 375.695 179.968 371.03C182.2 370.975 184.596 370.905 186.788 371.273L187.084 371.256C189.749 375.09 189.051 377.939 189.067 382.657C188.959 390.641 188.731 404.027 189.303 411.731C186.525 411.828 182.577 412.44 180.625 410.147C178.928 406.817 176.944 400.515 175.662 396.754C174.762 398.1 175.161 409.452 175.322 411.822C173.014 411.874 171.408 411.905 169.086 411.697C168.527 411.263 167.581 410.474 166.992 410.199C166.784 410.14 166.515 409.952 166.312 409.832C165.63 408.167 165.965 375.411 165.969 370.996Z"/><path fill="#6D8291" d="M187.084 371.256C189.749 375.09 189.051 377.939 189.067 382.657C188.959 390.641 188.731 404.027 189.303 411.731C186.525 411.828 182.577 412.44 180.625 410.147C182.492 410.437 185.054 410.184 186.934 410.014C187.219 402.812 186.832 394.653 187.01 387.331C187.086 384.218 187.205 374.064 186.788 371.273L187.084 371.256Z"/><path fill="#6D8291" d="M172.792 410.029C173.043 403.259 172.849 395.321 172.751 388.504C173.667 390.82 175.056 394.395 175.662 396.754C174.762 398.1 175.161 409.452 175.322 411.822C173.014 411.874 171.408 411.905 169.086 411.697C168.527 411.263 167.581 410.474 166.992 410.199C168.954 410.332 170.836 410.172 172.792 410.029Z"/><path fill="#FEFEFE" d="M306.104 371.069C308.583 370.926 311.491 371.003 314.003 371.01C317.135 373.738 318.333 380.473 319.281 384.444C320.617 390.036 321.847 395.652 322.972 401.29C323.526 404.082 324.262 408.972 325.459 411.426C322.806 411.749 319.432 412.746 317.695 410.315C316.907 410.139 316.89 410.154 316.184 409.781C314.965 408.135 315.047 406.817 314.796 404.737C313.71 403.929 309.891 404.396 308.378 404.237C308.139 407.131 307.507 409.011 307.05 411.725C305.02 411.753 303.167 411.797 301.134 411.649C300.402 411.126 299.547 410.425 298.715 410.154C298.159 410.017 298.42 410.14 298.002 409.632C297.809 407.443 305.188 374.407 306.104 371.069ZM312.543 394.321C312.418 392.754 311.806 389.79 311.517 388.144L310.999 388.055C310.555 388.907 309.819 393.711 308.957 396.007C309.991 396.032 311.654 396.261 312.401 395.768C312.664 395.208 312.579 394.948 312.543 394.321Z"/><path fill="#6D8291" d="M314.003 371.01C317.135 373.738 318.333 380.473 319.281 384.444C320.617 390.036 321.847 395.652 322.972 401.29C323.526 404.082 324.262 408.972 325.459 411.426C322.806 411.749 319.432 412.746 317.695 410.315L322.622 410.01C321.24 402.418 319.158 394.34 317.674 386.693C317.08 383.633 315.063 373.55 314.003 371.01Z"/><path fill="#6D8291" d="M305.884 402.293C308.485 402.383 311.794 402.248 314.317 402.537C314.768 403.156 314.725 403.936 314.796 404.737C313.71 403.929 309.891 404.396 308.378 404.237C308.139 407.131 307.507 409.011 307.05 411.725C305.02 411.753 303.167 411.797 301.134 411.649C300.402 411.126 299.547 410.425 298.715 410.154C300.854 410.24 302.207 410.206 304.351 410.069C305.01 407.519 305.427 404.889 305.884 402.293Z"/><path fill="#6D8291" d="M310.257 379.454C310.573 382.008 311.37 385.848 311.517 388.144L310.999 388.055C310.555 388.907 309.819 393.711 308.957 396.007C309.991 396.032 311.654 396.261 312.401 395.768C312.664 395.208 312.579 394.948 312.543 394.321C312.874 394.738 313.067 396.138 313.194 396.75C311.102 396.688 309.219 396.597 307.121 396.783C308.272 391.067 309.179 385.201 310.257 379.454Z"/><path fill="#FEFEFE" d="M275.511 390.861C275.225 386.652 275.605 382.237 275.411 378.071C274.993 369.136 289.106 369.523 293.78 373.301C298.002 376.671 297.742 381.546 297.297 386.514C291.845 386.158 292.84 386.095 288.166 384.487C287.916 382.486 287.935 381.036 286.706 379.441L286.224 379.303C284.43 380.414 284.701 384.359 284.698 386.254C287.333 387.548 293.052 388.925 294.706 390.309L295.007 390.657C297.897 393.673 296.93 399.684 297.088 403.495C297.471 412.734 291.777 411.975 284.735 411.871C282.542 411.838 280.983 411.273 279.245 409.914C274.437 406.137 275.305 402.515 275.564 397.073C276.9 396.951 281.234 396.627 282.197 397.397C282.302 398.04 282.299 398.483 282.712 398.976L283.439 398.882C284.722 399.616 283.487 402.116 284.716 403.465C285.894 403.714 286.804 403.563 287.837 402.953C288.422 402.001 288.288 397.609 288.066 396.344C287.956 395.717 287.236 395.746 286.32 395.472C282.066 394.2 279.349 393.15 275.511 390.861Z"/><path fill="#6D8291" d="M293.78 373.301C298.002 376.671 297.742 381.546 297.297 386.514C291.845 386.158 292.84 386.095 288.166 384.487C287.916 382.486 287.935 381.036 286.706 379.441L286.224 379.303C284.43 380.414 284.701 384.359 284.698 386.254C287.333 387.548 293.052 388.925 294.706 390.309C291.157 389.156 285.779 387.117 282.34 386.281C282.292 383.619 282.185 380.663 282.603 378.052C288.971 377.322 288.289 378.296 288.395 384.167C290.606 384.339 292.826 384.351 295.038 384.203C295.133 380.868 295.519 376.069 293.78 373.301Z"/><path fill="#6D8291" d="M295.007 390.657C297.897 393.673 296.93 399.684 297.088 403.495C297.471 412.734 291.777 411.975 284.735 411.871C282.542 411.838 280.983 411.273 279.245 409.914C283.257 410.058 291.385 411.034 293.728 407.481C295.477 404.829 295.611 393.824 295.007 390.657Z"/><path fill="#FEFEFE" d="M326.756 371.201C331.427 370.867 339.998 370.275 344.029 372.281C349.896 375.766 348.865 389.378 347.515 395.176C346.412 399.908 339.272 399.064 335.452 399.025C336.202 402.405 335.879 408.202 335.982 411.729C333.445 411.802 330.202 412.388 328.441 410.341C327.698 410.175 327.558 410.198 326.917 409.77C326.516 407.944 326.642 399.198 326.641 396.864C326.577 388.31 326.615 379.755 326.756 371.201ZM335.675 390.333C336.555 390.304 338.046 390.196 338.86 390.314L339.363 390.062C339.22 386.715 339.351 383.346 339.161 380.034L335.738 379.749C335.929 382.813 336.236 387.377 335.675 390.333Z"/><path fill="#6D8291" d="M344.029 372.281C349.896 375.766 348.865 389.378 347.515 395.176C346.412 399.908 339.272 399.064 335.452 399.025C336.202 402.405 335.879 408.202 335.982 411.729C333.445 411.802 330.202 412.388 328.441 410.341C329.94 410.327 332.273 410.462 333.556 409.785L333.784 409.03C333.617 405.097 333.813 401.27 333.578 397.202C346.721 396.839 346.506 395.88 346.558 382.082C346.576 377.37 347.12 376.13 344.029 372.281Z"/><path fill="#5C6C7B" d="M333.784 409.03C334.179 407.752 334.035 401.182 334.143 399.174C334.749 399.3 334.874 399.241 335.452 399.025C336.202 402.405 335.879 408.202 335.982 411.729C333.445 411.802 330.202 412.388 328.441 410.341C329.94 410.327 332.273 410.462 333.556 409.785L333.784 409.03Z"/><path fill="#5C6C7B" d="M333.752 377.997C335.827 377.993 337.332 378.061 339.403 378.232C339.612 380.249 339.718 388.203 339.363 390.062C339.22 386.715 339.351 383.346 339.161 380.034L335.738 379.749C335.929 382.813 336.236 387.377 335.675 390.333C336.555 390.304 338.046 390.196 338.86 390.314C337.802 390.759 334.995 390.718 333.745 390.744C333.796 386.495 333.799 382.246 333.752 377.997Z"/><path fill="#FEFEFE" d="M191.29 371.787C191.36 371.665 191.531 371.263 191.698 371.245C194.835 370.895 208.256 370.763 210.919 371.193C214.164 375.637 212.69 375.55 213.489 380.019C209.032 380.077 204.574 380.09 200.117 380.059C200.59 382.244 200.576 384.44 200.459 386.664C202.817 386.602 205.176 386.584 207.534 386.611C208.488 387.704 209.43 388.807 210.358 389.921C210.603 392.154 210.595 393.961 210.779 396.088C207.331 396.166 203.883 396.181 200.435 396.135C200.809 398.705 200.902 400.537 200.575 403.121C202.41 403.107 209.571 402.941 210.986 403.522C213.409 406.898 213.252 407.57 213.298 411.814C206.377 411.73 198.121 413.083 191.726 410.175C191.574 409.426 191.528 408.634 191.458 407.867C191.674 400.764 191.33 392.961 191.453 385.776C191.502 382.911 191.633 374.234 191.29 371.787Z"/><path fill="#5C6C7B" d="M210.919 371.193C214.164 375.637 212.69 375.55 213.489 380.019C209.032 380.077 204.574 380.09 200.117 380.059C200.59 382.244 200.576 384.44 200.459 386.664C202.817 386.602 205.176 386.584 207.534 386.611C208.488 387.704 209.43 388.807 210.358 389.921C210.603 392.154 210.595 393.961 210.779 396.088C207.331 396.166 203.883 396.181 200.435 396.135C200.809 398.705 200.902 400.537 200.575 403.121C202.41 403.107 209.571 402.941 210.986 403.522C208.61 403.904 201.876 403.379 198.432 403.739L198.272 393.94C201.589 394.029 204.907 393.985 208.22 393.808C208.312 391.512 208.246 389.841 208.124 387.535C204.887 387.495 201.651 387.477 198.415 387.481C198.329 384.266 198.278 381.051 198.26 377.835C201.743 378.211 207.578 377.894 211.108 377.754C211.292 375.413 211.336 373.503 210.919 371.193Z"/><path fill="#6D8291" d="M210.986 403.522C213.409 406.898 213.252 407.57 213.298 411.814C206.377 411.73 198.121 413.083 191.726 410.175C196.956 410.526 205.771 410.155 211.181 409.997C211.241 407.609 211.181 405.889 210.986 403.522Z"/><defs><linearGradient id="gradient_1" gradientUnits="userSpaceOnUse" x1="327.51202" y1="213.68962" x2="329.10834" y2="211.36356"><stop offset="0" stop-color="#00243C" stop-opacity="0"/><stop offset="1" stop-color="#000F28" stop-opacity="0.0078431377"/></linearGradient></defs><path fill="url(#gradient_1)" d="M320.291 207.068C323.796 209.722 325.788 211.273 329.88 213.121C331.05 213.649 334.875 215.071 335.519 215.424C335.433 215.599 335.468 215.48 335.554 215.793L336.467 216.11L336.423 216.338C333.221 216.912 321.441 210.891 320.016 207.544L320.291 207.068Z"/><path fill="#2F495E" fill-opacity="0.11764706" d="M244.592 261.484L245.18 262.409C242.145 266.106 240.273 268.847 238.011 273.159C237.309 274.497 236.049 277.278 235.424 278.307C235.454 274.946 242.481 264.642 244.592 261.484Z"/><path fill="#042845" fill-opacity="0.015686275" d="M261.823 386.241C262.264 385.754 262.22 385.267 262.302 384.578L262.338 384.258L262.74 383.994C262.705 385.85 262.548 387.675 262.407 389.525C262.13 388.376 261.829 387.422 261.823 386.241Z"/></svg>