<?xml version="1.0" encoding="utf-8" ?><svg xmlns="http://www.w3.org/2000/svg" xmlns:xlink="http://www.w3.org/1999/xlink" width="100" height="100" viewBox="0 0 100 100"><path fill="#082E51" transform="scale(2.63158 2.63158)" d="M11.6421 8.85833C11.6931 8.85314 11.7442 8.8498 11.7955 8.84833C15.7299 8.76829 27.2466 8.47397 30.4261 9.31786C32.0255 9.73572 33.4931 10.5517 34.6921 11.6898C39.7783 16.5745 38.1963 25.3502 31.8031 28.2479C30.2219 28.9645 28.7134 28.9466 27.0064 28.9789C26.5455 28.9863 26.0981 28.9636 25.6377 28.9128C16.5396 27.9091 1.61256 33.2598 0.354168 19.4915C0.112411 16.8464 0.972279 14.2225 2.69337 12.2817C5.28076 9.36398 8.05839 9.05893 11.6421 8.85833ZM15.0625 26.0291L19.2764 26.0046C14.4854 20.3139 18.685 10.9919 8.22862 12.3059C2.18493 14.7498 1.99989 22.5124 7.8014 25.3197C9.6252 26.2022 12.9886 26.0343 15.0625 26.0291ZM24.183 23.1795C26.0182 20.1407 25.1928 15.7353 25.2977 12.0562L17.2947 11.9291C17.8833 12.8684 18.5217 13.8558 18.89 14.9032C19.8443 17.6173 19.6465 22.5376 22.1833 24.2055C23.3317 24.4013 23.4498 24.1467 24.183 23.1795ZM26.0808 26.3113C27.6598 25.9143 29.2359 25.506 30.8091 25.0865C34.3198 22.6728 34.3957 20.8933 34.1993 16.7817C32.8886 14.467 31.6787 12.8878 28.9674 12.1357C28.8473 12.103 28.7258 12.0753 28.6034 12.0527C29.3276 14.689 29.0934 21.619 27.533 24.0368C27.144 24.6396 26.4988 25.6614 26.0808 26.3113Z"/></svg>